<svg width="32" height="32" viewBox="0 0 32 32" fill="none" xmlns="http://www.w3.org/2000/svg">
<g opacity="0.8">
<path d="M29.9091 17.5484C29.6485 14.1528 26.8542 11.4617 23.4157 11.3646C22.5311 8.60594 19.9628 6.70968 17.0322 6.70968C15.5742 6.70968 14.2075 7.18297 13.09 7.99381L9.57932 0.972387C9.27945 0.372645 8.67661 0 8.00616 0H7.95248C6.98268 0 6.19352 0.788645 6.19352 1.75845C6.19352 2.04181 6.26319 2.32413 6.39429 2.57445L10.7907 10.9672C10.7396 11.0978 10.6921 11.2294 10.6487 11.3641C10.3138 11.3734 9.98552 11.407 9.66448 11.4643L4.41803 0.972387C4.11816 0.372645 3.51532 0 2.84487 0H2.79119C1.82139 0 1.03223 0.788645 1.03223 1.75845C1.03223 2.04181 1.1019 2.32413 1.233 2.57445L6.61777 12.8552C5.22732 13.9845 4.30036 15.6578 4.15532 17.5484H3.09674V20.129C3.09674 24.4537 5.91377 28.1259 9.80642 29.4266V32H24.258V29.4266C28.1507 28.1259 30.9677 24.4537 30.9677 20.129V17.5484H29.9091ZM28.8769 17.5484H27.8405C27.5824 15.2294 25.6124 13.4194 23.2258 13.4194C20.8392 13.4194 18.8686 15.2294 18.6111 17.5484H17.5747C17.8364 14.6591 20.2694 12.3871 23.2258 12.3871C26.1822 12.3871 28.6152 14.6591 28.8769 17.5484ZM23.2258 15.4839C21.9793 15.4839 20.9373 16.3721 20.6973 17.5484H19.6542C19.906 15.8008 21.4095 14.4516 23.2258 14.4516C25.042 14.4516 26.5455 15.8008 26.7974 17.5484H25.7543C25.5143 16.3721 24.4722 15.4839 23.2258 15.4839ZM24.6792 17.5484H21.7729C21.9865 16.9492 22.5543 16.5161 23.2263 16.5161C23.8983 16.5161 24.4655 16.9492 24.6792 17.5484ZM17.0322 15.488C16.6776 14.639 16.1522 13.8803 15.5009 13.2495C15.5871 12.4764 16.2364 11.871 17.0322 11.871C17.8281 11.871 18.4774 12.4764 18.5636 13.2495C17.9122 13.8803 17.3868 14.639 17.0322 15.488ZM17.0322 7.74194C19.4188 7.74194 21.5215 9.22787 22.3442 11.4199C21.9938 11.4663 21.6505 11.5365 21.3192 11.6351C21.2423 11.4514 21.1556 11.2697 21.056 11.0973L20.1625 11.6134C20.2358 11.7404 20.2983 11.8746 20.3561 12.0093C20.0387 12.1605 19.7326 12.3303 19.4451 12.527C19.0792 11.5443 18.1404 10.8387 17.0322 10.8387C15.9241 10.8387 14.9853 11.5443 14.6204 12.527C14.3329 12.3298 14.0263 12.16 13.7094 12.0093C14.2776 10.6705 15.5731 9.80645 17.0322 9.80645C17.7419 9.80645 18.4289 10.0119 19.0183 10.4005L19.5865 9.53858C18.8278 9.03897 17.9442 8.77419 17.0322 8.77419C15.1458 8.77419 13.4704 9.89677 12.7458 11.6351C12.4139 11.5365 12.0712 11.4663 11.7202 11.4199C12.5429 9.22787 14.6456 7.74194 17.0322 7.74194ZM7.30887 2.096C7.25468 1.99174 7.22577 1.87561 7.22577 1.75845C7.22577 1.35794 7.55145 1.03226 7.95248 1.03226H8.00616C8.28332 1.03226 8.5321 1.18606 8.65597 1.43381L12.2818 8.68542C11.936 9.03226 11.6273 9.41626 11.3625 9.83484L7.30887 2.096ZM2.14758 2.096C2.09339 1.99174 2.06448 1.87561 2.06448 1.75845C2.06448 1.35794 2.39016 1.03226 2.79119 1.03226H2.84487C3.12203 1.03226 3.37081 1.18606 3.49468 1.43381L8.64306 11.7311C8.23429 11.873 7.8441 12.0526 7.47506 12.2679L2.14758 2.096ZM10.8387 12.3871C13.7951 12.3871 16.2281 14.6591 16.4898 17.5484H15.4534C15.1953 15.2294 13.2253 13.4194 10.8387 13.4194C9.42139 13.4194 8.1001 14.0537 7.21287 15.1613L8.01855 15.8065C8.70861 14.9455 9.73674 14.4516 10.8387 14.4516C12.6549 14.4516 14.1584 15.8008 14.4103 17.5484H13.3672C13.1272 16.3721 12.0851 15.4839 10.8387 15.4839C9.59223 15.4839 8.55016 16.3721 8.31016 17.5484H7.26552C7.2841 17.4178 7.30681 17.2877 7.33932 17.1608L6.33958 16.9037C6.28539 17.1148 6.24977 17.3311 6.22552 17.5484H5.18758C5.44926 14.6591 7.88229 12.3871 10.8387 12.3871ZM12.2921 17.5484H9.38577C9.59945 16.9492 10.1672 16.5161 10.8392 16.5161C11.5112 16.5161 12.0784 16.9492 12.2921 17.5484ZM29.9355 20.129C29.9355 24.9672 25.9995 28.9032 21.1613 28.9032V29.9355C21.8699 29.9355 22.5595 29.856 23.2258 29.7125V30.9677H10.8387V29.7125C11.505 29.856 12.1945 29.9355 12.9032 29.9355H20.129V28.9032H12.9032C8.065 28.9032 4.129 24.9672 4.129 20.129V18.5806H29.9355V20.129Z" fill="#353536"/>
<path d="M6.4723 22.0449L5.4834 22.3412C5.58508 22.6798 5.7105 23.0147 5.85708 23.3358L6.79591 22.9074C6.66895 22.6292 6.56004 22.3386 6.4723 22.0449Z" fill="#353536"/>
<path d="M7.15922 23.5933L6.27612 24.1275C7.67432 26.4366 10.2137 27.8709 12.9032 27.8709V26.8387C10.5373 26.8387 8.38967 25.6253 7.15922 23.5933Z" fill="#353536"/>
</g>
</svg>
