<svg width="80" height="80" viewBox="0 0 80 80" fill="none" xmlns="http://www.w3.org/2000/svg">
<rect x="0.5" y="0.5" width="79" height="79" rx="15.5" stroke="#F4F4F4"/>
<g opacity="0.64">
<path d="M50.59 39.7201L50.3755 39.6586L51.4765 38.5576C54.1165 35.9181 54.1165 31.6226 51.4765 28.9831C49.35 26.8566 46.029 26.3916 43.401 27.8526L41.923 28.6736C39.272 30.1461 36.841 31.9801 34.6965 34.1246C33.0845 35.7366 31.643 37.5246 30.4015 39.4371L29.41 39.7201C26.519 40.5461 24.5 43.2226 24.5 46.2296C24.5 49.9631 27.537 53.0001 31.2705 53.0001H48.73C52.463 53.0001 55.5 49.9631 55.5 46.2296C55.5 43.2226 53.481 40.5461 50.59 39.7201ZM50.4445 40.7246C50.3815 42.0466 50.2625 43.3766 50.076 44.6841C50.0655 44.7591 49.935 44.7591 49.924 44.6841C49.725 43.2901 49.5995 41.8726 49.5405 40.4601L50.315 40.6816C50.359 40.6941 50.401 40.7111 50.4445 40.7246ZM43.8865 28.7266C43.9265 28.7046 43.968 28.6866 44.0085 28.6656C44.8995 29.6461 45.756 30.6706 46.548 31.7266C46.5705 31.7571 46.5675 31.7996 46.541 31.8266C46.514 31.8536 46.4715 31.8566 46.441 31.8336C45.3135 30.9881 44.222 30.0746 43.183 29.1181L43.8865 28.7266ZM42.2645 29.6306C43.4 30.6916 44.5995 31.7021 45.8405 32.6331C46.0315 32.7766 46.2585 32.8471 46.4855 32.8471C46.7635 32.8471 47.0405 32.7411 47.248 32.5336C47.6245 32.1576 47.667 31.5526 47.348 31.1266C46.609 30.1411 45.811 29.1871 44.986 28.2641C46.9955 27.6476 49.243 28.1651 50.769 29.6911C53.019 31.9411 53.019 35.6016 50.769 37.8516L49.2755 39.3451L48.9645 39.2561C46.1755 38.4591 43.2865 38.0476 40.3935 38.0131C39.484 36.9001 38.514 35.8206 37.5 34.8061L36.4925 33.7986C36.9875 33.3481 37.4955 32.9131 38.018 32.4956L38.207 32.6846C39.648 34.1256 41.2055 35.4761 42.8355 36.6986C43.0265 36.8421 43.254 36.9126 43.4805 36.9126C43.7585 36.9126 44.0355 36.8066 44.243 36.5991C44.6195 36.2231 44.6625 35.6181 44.343 35.1921C43.1625 33.6176 41.8605 32.1141 40.475 30.7156C41.0585 30.3336 41.656 29.9731 42.2645 29.6306ZM44.5 39.3236C44.834 39.3716 45.1675 39.4236 45.4995 39.4821C45.4985 41.4666 45.356 43.4686 45.0755 45.4341C45.065 45.5091 44.9345 45.5091 44.9235 45.4341C44.643 43.4631 44.5 41.4546 44.5 39.4646V39.3236ZM39.5 39.0086C39.6665 39.0061 39.833 39.0001 40 39.0001C40.167 39.0001 40.3335 39.0061 40.5 39.0086V40.4641C40.5 42.4541 40.357 44.4626 40.076 46.4336C40.0655 46.5086 39.935 46.5086 39.924 46.4336C39.643 44.4631 39.5 42.4546 39.5 40.4646V39.0086ZM39.6335 31.2831C41.0365 32.6866 42.3515 34.2036 43.5425 35.7916C43.565 35.8221 43.562 35.8646 43.5355 35.8916C43.509 35.9186 43.466 35.9216 43.4355 35.8986C41.843 34.7041 40.3215 33.3851 38.914 31.9771L38.8145 31.8776C39.0845 31.6756 39.357 31.4766 39.6335 31.2831ZM35.7635 34.4836L36.793 35.5131C37.591 36.3111 38.352 37.1576 39.087 38.0216C38.744 38.0311 38.4015 38.0471 38.059 38.0671C37.384 37.4736 36.72 36.8546 36.0855 36.2201L35.0595 35.1941C35.1755 35.0741 35.2855 34.9486 35.4035 34.8311C35.522 34.7131 35.644 34.5996 35.7635 34.4836ZM32.5505 38.3416C32.6915 38.4826 32.827 38.6291 32.966 38.7721C32.6055 38.8516 32.2465 38.9366 31.8885 39.0286C32.0735 38.7651 32.2645 38.5066 32.4575 38.2486L32.5505 38.3416ZM34.129 38.5376C33.842 38.2331 33.553 37.9301 33.2575 37.6346L33.0685 37.4456C33.4865 36.9231 33.9225 36.4156 34.372 35.9206L35.3785 36.9276C35.8025 37.3516 36.2415 37.7661 36.6855 38.1746C35.829 38.2611 34.9765 38.3836 34.129 38.5376ZM35.5 39.3236V39.4646C35.5 41.4546 35.357 43.4631 35.076 45.4341C35.0655 45.5091 34.935 45.5091 34.924 45.4341C34.6435 43.4686 34.501 41.4666 34.5 39.4821C34.8325 39.4236 35.166 39.3716 35.5 39.3236ZM30.4595 40.4606C30.4005 41.8731 30.275 43.2901 30.076 44.6846C30.0655 44.7596 29.935 44.7596 29.924 44.6846C29.7375 43.3771 29.6185 42.0471 29.5555 40.7251C29.599 40.7116 29.641 40.6946 29.685 40.6821L30.4595 40.4606ZM48.7295 52.0001H31.2705C28.0885 52.0001 25.5 49.4111 25.5 46.2296C25.5 44.0751 26.719 42.1231 28.5715 41.1366C28.6405 42.3696 28.7605 43.6071 28.9345 44.8261C29.01 45.3526 29.468 45.7501 30 45.7501C30.532 45.7501 30.99 45.3526 31.0655 44.8256C31.285 43.2901 31.4185 41.7276 31.4715 40.1741C32.144 39.9856 32.8215 39.8186 33.504 39.6751C33.5135 41.6431 33.656 43.6271 33.9345 45.5756C34.01 46.1026 34.468 46.5001 35 46.5001C35.532 46.5001 35.99 46.1026 36.0655 45.5756C36.354 43.5576 36.5 41.5016 36.5 39.4646V39.1971C37.1645 39.1231 37.8315 39.0716 38.5 39.0401V40.4646C38.5 42.5016 38.646 44.5581 38.9345 46.5761C39.01 47.1026 39.468 47.5001 40 47.5001C40.532 47.5001 40.99 47.1026 41.0655 46.5756C41.354 44.5576 41.5 42.5016 41.5 40.4646V39.0401C42.1685 39.0716 42.8355 39.1231 43.5 39.1971V39.4646C43.5 41.5016 43.646 43.5581 43.9345 45.5761C44.01 46.1026 44.468 46.5001 45 46.5001C45.532 46.5001 45.99 46.1026 46.0655 45.5756C46.344 43.6271 46.4865 41.6431 46.496 39.6751C47.1785 39.8181 47.856 39.9856 48.5285 40.1741C48.581 41.7276 48.715 43.2906 48.9345 44.8256C49.01 45.3526 49.468 45.7501 50 45.7501C50.532 45.7501 50.99 45.3526 51.0655 44.8256C51.2395 43.6066 51.3595 42.3696 51.4285 41.1366C53.281 42.1231 54.5 44.0751 54.5 46.2296C54.5 49.4111 51.9115 52.0001 48.7295 52.0001Z" fill="#353536"/>
</g>
</svg>
