<svg width="32" height="32" viewBox="0 0 32 32" fill="none" xmlns="http://www.w3.org/2000/svg">
<g opacity="0.8" clip-path="url(#clip0_31_655)">
<path d="M30.9049 15.6796H30.4136C30.366 15.3916 30.3414 15.1199 30.3961 14.9185C30.4921 14.5647 30.8082 14.1896 31.1138 13.8269C31.5468 13.3132 31.9945 12.782 31.9999 12.134C32.0067 11.3184 31.4437 10.7115 30.9468 10.1761C30.6771 9.88539 30.4223 9.61083 30.3236 9.37033C30.2053 9.0819 30.1471 8.69227 30.0907 8.31553C29.9733 7.53003 29.8401 6.63978 29.0905 6.25541C28.3401 5.87122 27.5396 6.28316 26.833 6.64678C26.4945 6.82103 26.1444 7.00116 25.8417 7.07359C25.6158 7.12747 25.2797 7.09372 24.9823 7.05778C24.7256 7.02672 24.4917 7.2099 24.4607 7.4669C24.4297 7.7239 24.6128 7.95746 24.8698 7.98846C25.2652 8.03628 25.6828 8.07528 26.0595 7.9854C26.4726 7.88659 26.874 7.68009 27.262 7.48034C27.817 7.19472 28.3412 6.92491 28.6629 7.08972C28.9841 7.2544 29.0713 7.83715 29.1635 8.45421C29.2281 8.88615 29.2949 9.33277 29.4563 9.72627C29.6195 10.124 29.9449 10.4746 30.2596 10.8138C30.6561 11.2411 31.0661 11.6831 31.0624 12.1262C31.0599 12.4363 30.7228 12.8362 30.397 13.2229C30.0257 13.6635 29.6418 14.1191 29.4914 14.6729C29.4045 14.9927 29.4188 15.34 29.4658 15.6797H26.318C26.3106 15.268 26.1335 14.8986 25.8927 14.55C26.2075 13.6776 26.4871 12.7799 26.724 11.8772C26.7898 11.6268 26.64 11.3706 26.3896 11.3048C26.1391 11.2391 25.883 11.3889 25.8173 11.6393C25.6365 12.3281 25.43 13.0138 25.2016 13.687C24.9276 13.3556 24.6748 13.0186 24.5867 12.6941C24.4995 12.3733 24.5898 11.9119 24.6853 11.4235C24.8221 10.7236 24.9772 9.93039 24.6322 9.25696C24.287 8.58334 23.552 8.24596 22.9036 7.94828C22.4515 7.74072 22.0245 7.54465 21.8152 7.28734C21.5604 6.97316 21.4299 6.45516 21.3036 5.95416C21.1279 5.25647 20.946 4.53504 20.3919 4.12879C19.6926 3.61679 18.8124 3.72698 18.036 3.82411C17.6072 3.87779 17.2024 3.92854 16.9225 3.86167C16.5901 3.78236 16.2092 3.58648 15.8409 3.39698C15.0858 3.00848 14.2301 2.56811 13.4368 2.9748C12.6839 3.36067 12.5175 4.23848 12.3951 5.04516C12.019 4.86948 11.6815 4.69448 11.5028 4.47479C11.248 4.1606 11.1174 3.64261 10.9911 3.14161C10.8154 2.44392 10.6336 1.72249 10.0794 1.31624C9.38015 0.804242 8.49997 0.914429 7.72353 1.01155C7.29491 1.06524 6.88997 1.11587 6.61004 1.04912C6.2776 0.969804 5.89679 0.77393 5.52848 0.584431C4.77336 0.196057 3.91755 -0.244191 3.12455 0.162245C2.33137 0.568431 2.18893 1.5203 2.06337 2.36017C2.00212 2.76986 1.93868 3.19342 1.80887 3.50979C1.69974 3.77604 1.42212 4.07523 1.12812 4.39204C0.595999 4.96554 -0.00712385 5.6156 6.36236e-05 6.48216C0.0058761 7.16922 0.485499 7.73828 0.94931 8.28859C1.28225 8.68365 1.62656 9.09215 1.73262 9.48215C1.81949 9.80252 1.72924 10.2637 1.63374 10.7519C1.49675 11.4521 1.34143 12.2457 1.68662 12.9188C2.03168 13.5923 2.76637 13.9296 3.41461 14.2273C3.86686 14.435 4.29411 14.6312 4.50373 14.8894C4.66586 15.0889 4.77754 15.3715 4.86992 15.6796H1.09512C0.476874 15.6762 -0.0332487 16.2161 0.00193862 16.8326C0.100563 18.5607 0.564061 20.2079 1.3795 21.7283C1.50187 21.9565 1.78606 22.0423 2.01412 21.9198C2.24224 21.7974 2.32799 21.5133 2.20562 21.2852C1.45525 19.886 1.02868 18.3699 0.93781 16.7791C0.932372 16.6838 0.992747 16.6203 1.09512 16.6171H30.9049C31.0083 16.6207 31.0676 16.6835 31.0621 16.7791C30.91 19.4437 29.7844 21.9532 27.8925 23.8453C25.7936 25.9443 23.1189 27.0255 20.196 27.0333H11.804C8.50728 27.0325 5.46898 25.6053 3.36293 23.0205C3.19943 22.8198 2.90418 22.7896 2.70343 22.9533C2.50274 23.1169 2.47268 23.4122 2.63624 23.6128C4.10473 25.4145 6.03223 26.7157 8.18247 27.4056V28.7438C8.18247 30.5392 9.64321 32 11.4387 32H20.5612C22.3567 32 23.8175 30.5392 23.8175 28.7438V27.4076C25.5849 26.8411 27.2047 25.8585 28.5554 24.5081C30.6103 22.4531 31.8329 19.7272 31.9981 16.8326C32.0333 16.216 31.5198 15.6765 30.9049 15.6796ZM10.9575 15.6796C9.78734 13.9092 8.78934 12.0283 7.99047 10.0843C7.44185 8.75034 6.97691 7.36172 6.60854 5.95685C6.54279 5.70641 6.2866 5.55672 6.03623 5.62229C5.78579 5.68797 5.63604 5.94416 5.70167 6.1946C6.0806 7.63972 6.55898 9.06833 7.12335 10.4408C7.86791 12.2524 8.78003 14.0109 9.83984 15.6796H5.84385C5.71192 15.1822 5.5501 14.6904 5.23148 14.2984C4.88417 13.8705 4.33605 13.6188 3.80586 13.3753C3.27099 13.1297 2.71799 12.8758 2.52087 12.4911C2.32387 12.1069 2.44074 11.5096 2.55374 10.9319C2.66568 10.3597 2.78149 9.76808 2.6373 9.2364C2.4768 8.64634 2.06468 8.15734 1.66606 7.6844C1.30931 7.26109 0.940435 6.82334 0.937497 6.47428C0.933372 5.98022 1.38168 5.49697 1.81531 5.02966C2.15312 4.66554 2.50249 4.28898 2.67612 3.86561C2.84899 3.44436 2.92086 2.96373 2.99043 2.49886C3.09161 1.82236 3.18718 1.18343 3.55192 0.996617C3.91686 0.809617 4.49111 1.10524 5.09948 1.41818C5.51742 1.63318 5.9496 1.85549 6.39235 1.96111C6.83729 2.06736 7.34703 2.00355 7.83991 1.94193C8.47253 1.86274 9.12684 1.78086 9.52534 2.07261C9.80696 2.27905 9.94677 2.83405 10.082 3.37073C10.2331 3.97042 10.3893 4.59054 10.775 5.06591C11.1223 5.49316 11.6701 5.74466 12.2 5.98785C12.735 6.23347 13.2882 6.48747 13.4853 6.87203C13.6823 7.25653 13.5655 7.85371 13.4526 8.43115C13.3407 9.00365 13.2249 9.59558 13.3693 10.1269C13.4334 10.3638 13.5401 10.5839 13.66 10.782C12.3983 11.4556 11.5375 12.7853 11.5375 14.3126C11.5375 14.7816 11.6199 15.2439 11.7783 15.6797H10.9575V15.6796ZM18.2779 15.6796H12.7971C12.586 15.2569 12.475 14.7893 12.475 14.3126C12.475 12.6239 13.8488 11.2501 15.5374 11.2501C17.2261 11.2501 18.5999 12.6239 18.5999 14.3126C18.6 14.7894 18.4889 15.257 18.2779 15.6796ZM21.5529 15.6796H19.2967C19.455 15.2439 19.5374 14.7816 19.5374 14.3126C19.5374 13.1204 19.0126 12.0491 18.1824 11.3156C18.3874 11.2728 18.5976 11.2501 18.8124 11.2501C20.5011 11.2501 21.8749 12.6239 21.8749 14.3126C21.875 14.7894 21.764 15.257 21.5529 15.6796ZM22.5717 15.6796C22.73 15.2439 22.8125 14.7816 22.8125 14.3126C22.8125 12.1069 21.0181 10.3126 18.8125 10.3126C18.2469 10.3126 17.6847 10.4333 17.1725 10.6634C16.6729 10.4387 16.1198 10.3126 15.5375 10.3126C15.1976 10.3126 14.8676 10.3555 14.5523 10.4356C14.4344 10.2638 14.326 10.0727 14.2743 9.88152C14.1871 9.56071 14.2773 9.09933 14.3728 8.6109C14.5096 7.91103 14.6648 7.11778 14.3197 6.44435C14.0944 6.00485 13.7031 5.70891 13.2784 5.47335C13.3799 4.80648 13.4713 4.01048 13.8645 3.80904C14.2294 3.62211 14.8037 3.91767 15.4121 4.2306C15.83 4.4456 16.2622 4.66791 16.7049 4.77354C17.1499 4.87979 17.6596 4.81598 18.1525 4.75435C18.7851 4.67516 19.4394 4.59335 19.8379 4.88504C20.1195 5.09154 20.2594 5.64647 20.3946 6.18316C20.5457 6.78284 20.7019 7.40297 21.0875 7.87834C21.4349 8.30559 21.9827 8.55709 22.5125 8.80027C23.0476 9.0459 23.6008 9.2999 23.7978 9.68446C23.9948 10.069 23.8781 10.6661 23.7652 11.2436C23.6533 11.8161 23.5375 12.408 23.682 12.9398C23.8423 13.5302 24.2545 14.0194 24.6532 14.4924C25.0024 14.9067 25.3623 15.3347 25.3797 15.6796H22.5717ZM22.88 28.7438C22.88 30.0223 21.8398 31.0625 20.5612 31.0625H11.4388C10.1602 31.0625 9.12003 30.0223 9.12003 28.7438V27.6641C9.99021 27.8658 10.8895 27.9708 11.804 27.9708H20.196C21.111 27.9708 22.0099 27.8668 22.8799 27.6658V28.7438H22.88Z" fill="#353536"/>
</g>
<defs>
<clipPath id="clip0_31_655">
<rect width="32" height="32" fill="white"/>
</clipPath>
</defs>
</svg>
