<svg width="80" height="80" viewBox="0 0 80 80" fill="none" xmlns="http://www.w3.org/2000/svg">
<g filter="url(#filter0_d_66_151)">
<rect width="80" height="80" rx="16" fill="white"/>
<g opacity="0.64" clip-path="url(#clip0_66_151)">
<path d="M35.6768 29.3339C35.8433 29.3339 36.0047 29.2448 36.0895 29.088L36.496 28.3358C36.619 28.1081 36.5342 27.8238 36.3065 27.7007C36.0786 27.5777 35.7945 27.6626 35.6715 27.8902L35.265 28.6423C35.1419 28.87 35.2267 29.1544 35.4544 29.2774C35.5252 29.3157 35.6015 29.3339 35.6768 29.3339Z" fill="#353536"/>
<path d="M40.4629 28.9166V28.0616C40.4629 27.8028 40.2531 27.593 39.9943 27.593C39.7355 27.593 39.5256 27.8028 39.5256 28.0616V28.9166C39.5256 29.1755 39.7355 29.3853 39.9943 29.3853C40.2531 29.3853 40.4629 29.1755 40.4629 28.9166Z" fill="#353536"/>
<path d="M44.3234 29.3276C44.4032 29.3276 44.4841 29.3072 44.5581 29.2643C44.782 29.1344 44.8582 28.8477 44.7283 28.6238L44.2994 27.8842C44.1695 27.6603 43.8828 27.5841 43.6589 27.7139C43.435 27.8438 43.3588 28.1306 43.4886 28.3544L43.9176 29.0941C44.0045 29.2439 44.1618 29.3276 44.3234 29.3276Z" fill="#353536"/>
<path d="M56 38.4755V38.0626C56 37.1873 55.5591 36.4133 54.8881 35.9501C55.046 35.8225 55.1884 35.6723 55.3103 35.4999C55.726 34.912 55.8304 34.1548 55.5898 33.4745C55.0085 31.8314 53.8005 29.4652 51.3464 27.5236C48.5169 25.285 44.7017 24.1153 40.0068 24.0474C40.0023 24.0473 39.9977 24.0473 39.9932 24.0474C37.8713 24.0781 35.9056 24.3377 34.1508 24.819C33.9012 24.8875 33.7543 25.1453 33.8228 25.3949C33.8912 25.6445 34.149 25.7915 34.3986 25.7229C36.0753 25.263 37.9597 25.0147 39.9999 24.9847C50.1383 25.134 53.5658 30.5634 54.7061 33.7871C54.8475 34.1868 54.7887 34.6139 54.5449 34.9588C54.3032 35.3008 53.9241 35.4969 53.5048 35.4969H26.4949C26.0741 35.4969 25.693 35.2997 25.4494 34.9557C25.2088 34.6158 25.1496 34.1968 25.2871 33.806C26.1184 31.4438 28.0275 28.2428 32.4012 26.4085C32.6399 26.3084 32.7523 26.0338 32.6521 25.7952C32.552 25.5564 32.2772 25.4442 32.0387 25.5442C29.9091 26.4373 28.1271 27.7277 26.7424 29.3795C25.7234 30.5948 24.9364 31.9794 24.4031 33.4949C24.1633 34.1763 24.2659 34.9062 24.6846 35.4973C24.8066 35.6696 24.9516 35.8207 25.1131 35.9493C24.4413 36.4125 24 37.1868 24 38.0626V38.4755C24 39.7129 24.8806 40.7485 26.0479 40.9887L26.0386 43.7872C24.8759 44.031 24 45.0639 24 46.2979V46.7108C24 47.9475 24.8796 48.9826 26.0461 49.2235C26.0146 49.7167 26.0308 50.5171 26.3151 51.4076C27.0816 53.8076 29.1573 54.9506 30.7635 55.4868C31.6898 55.796 32.6791 55.9528 33.7037 55.9528H46.2963C47.321 55.9528 48.3102 55.796 49.2365 55.4868C50.8428 54.9505 52.9185 53.8076 53.6849 51.4076C53.9692 50.5172 53.9854 49.7167 53.9539 49.2235C55.1204 48.9827 56 47.9475 56 46.7108V46.2979C56 45.0606 55.1193 44.0259 53.9521 43.7858V40.9887C55.1194 40.7485 56 39.7129 56 38.4755ZM24.9373 46.7108V46.2979C24.9373 45.5858 25.3973 44.9803 26.0354 44.7597L26.0344 45.0359C26.0344 45.7011 26.4075 46.2906 27.0079 46.5744C27.6119 46.8598 28.3086 46.773 28.8261 46.3477C29.0681 46.1488 29.3628 45.9647 29.8756 45.9647C29.9295 45.9647 29.9803 45.9669 30.0299 45.97V48.3393H26.5657C25.6677 48.3393 24.9373 47.6087 24.9373 46.7108ZM43.6117 43.0451H53.0148V45.0361C53.0148 45.3397 52.8515 45.598 52.5781 45.7272C52.3011 45.8581 51.9936 45.8195 51.7556 45.6238C51.4177 45.3462 50.9254 45.0274 50.1105 45.0274C49.1043 45.0274 48.5884 45.436 48.1333 45.7966C47.7337 46.1132 47.418 46.3632 46.738 46.3632C46.0579 46.3632 45.7423 46.1132 45.3427 45.7966C44.8876 45.4361 44.3717 45.0274 43.3654 45.0274C42.3592 45.0274 41.8208 45.4539 41.3882 45.7966C40.9886 46.1132 40.6729 46.3632 39.993 46.3632C39.313 46.3632 38.9974 46.1132 38.5978 45.7966C38.1652 45.4539 37.6268 45.0274 36.6206 45.0274C35.6144 45.0274 35.0986 45.436 34.6434 45.7966C34.3585 46.0223 34.1152 46.2133 33.7531 46.3047V43.666C33.7531 43.3236 34.0316 43.0451 34.3739 43.0451H41.4143C41.6731 43.0451 41.8829 42.8353 41.8829 42.5765C41.8829 42.3177 41.6731 42.1078 41.4143 42.1078H34.3739C33.5147 42.1078 32.8158 42.8068 32.8158 43.666V49.4373C32.8158 49.947 32.4011 50.3617 31.8914 50.3617C31.3818 50.3617 30.9671 49.947 30.9671 49.4373V43.666C30.9671 42.8068 30.2681 42.1078 29.409 42.1078H26.9852V41.0412H53.0148V42.1078H43.6117C43.3529 42.1078 43.1431 42.3177 43.1431 42.5765C43.1431 42.8353 43.3529 43.0451 43.6117 43.0451ZM29.4089 43.0451C29.7513 43.0451 30.0299 43.3236 30.0299 43.666V45.0313C29.9797 45.029 29.9286 45.0274 29.8756 45.0274C29.0609 45.0274 28.5687 45.346 28.231 45.6235C27.9929 45.8192 27.6854 45.8578 27.4083 45.7269C27.1349 45.5977 26.9716 45.3393 26.9716 45.0358V43.0451H29.4089ZM52.7921 51.1225C52.2728 52.7485 50.9767 53.9178 48.9397 54.5977C48.1093 54.875 47.2199 55.0155 46.2962 55.0155H33.7037C32.7801 55.0155 31.8907 54.875 31.0603 54.5977C27.07 53.2657 26.9029 50.3233 26.9786 49.2765H30.0299V49.4372C30.0299 50.4637 30.865 51.2988 31.8915 51.2988C32.918 51.2988 33.7531 50.4638 33.7531 49.4372V49.2765H53.0191C53.0455 49.6768 53.036 50.3585 52.7921 51.1225ZM55.0627 46.2979V46.7108C55.0627 47.6087 54.3322 48.3393 53.4342 48.3393H33.753V47.2613C34.4402 47.1517 34.8534 46.8258 35.2253 46.5313C35.6249 46.2147 35.9406 45.9647 36.6206 45.9647C37.3006 45.9647 37.6162 46.2147 38.0157 46.5313C38.4484 46.874 38.9867 47.3005 39.9929 47.3005C40.9991 47.3005 41.515 46.8918 41.9701 46.5313C42.3698 46.2147 42.6854 45.9647 43.3654 45.9647C44.0454 45.9647 44.3611 46.2147 44.7607 46.5313C45.2158 46.8918 45.7317 47.3005 46.7379 47.3005C47.7442 47.3005 48.2601 46.8918 48.7152 46.5313C49.1148 46.2147 49.4304 45.9647 50.1104 45.9647C50.6234 45.9647 50.9182 46.1489 51.1604 46.348C51.6777 46.7732 52.3744 46.8602 52.9784 46.5747C53.5789 46.291 53.952 45.7014 53.952 45.0362V44.7544C54.5969 44.9712 55.0627 45.581 55.0627 46.2979ZM53.4343 40.104H26.5657C25.6677 40.104 24.9372 39.3734 24.9372 38.4755V38.0626C24.9372 37.1647 25.6677 36.4341 26.5657 36.4341H53.4342C54.3322 36.4341 55.0627 37.1647 55.0627 38.0626V38.4755C55.0627 39.3734 54.3323 40.104 53.4343 40.104Z" fill="#353536"/>
</g>
</g>
<defs>
<filter id="filter0_d_66_151" x="-16" y="-12" width="128" height="128" filterUnits="userSpaceOnUse" color-interpolation-filters="sRGB">
<feFlood flood-opacity="0" result="BackgroundImageFix"/>
<feColorMatrix in="SourceAlpha" type="matrix" values="0 0 0 0 0 0 0 0 0 0 0 0 0 0 0 0 0 0 127 0" result="hardAlpha"/>
<feOffset dx="8" dy="12"/>
<feGaussianBlur stdDeviation="12"/>
<feColorMatrix type="matrix" values="0 0 0 0 0.0431373 0 0 0 0 0.0431373 0 0 0 0 0.0431373 0 0 0 0.06 0"/>
<feBlend mode="normal" in2="BackgroundImageFix" result="effect1_dropShadow_66_151"/>
<feBlend mode="normal" in="SourceGraphic" in2="effect1_dropShadow_66_151" result="shape"/>
</filter>
<clipPath id="clip0_66_151">
<rect width="32" height="32" fill="white" transform="translate(24 24)"/>
</clipPath>
</defs>
</svg>
