<svg width="80" height="80" viewBox="0 0 80 80" fill="none" xmlns="http://www.w3.org/2000/svg">
<rect x="0.5" y="0.5" width="79" height="79" rx="15.5" stroke="#F4F4F4"/>
<path d="M31.7746 30.8996L29.8996 32.7746C29.5335 33.1408 29.5335 33.7343 29.8996 34.1004C30.2657 34.4666 30.8593 34.4666 31.2254 34.1004L33.1004 32.2255C33.4665 31.8593 33.4665 31.2658 33.1004 30.8996C32.7343 30.5335 32.1407 30.5335 31.7746 30.8996Z" fill="#606060"/>
<path d="M37.4621 30.8996L35.5871 32.7746C35.221 33.1408 35.221 33.7343 35.5871 34.1004C35.9532 34.4666 36.5468 34.4666 36.9129 34.1004L38.7879 32.2255C39.154 31.8593 39.154 31.2658 38.7879 30.8996C38.4218 30.5335 37.8282 30.5335 37.4621 30.8996Z" fill="#606060"/>
<path d="M43.0871 30.8996L41.2121 32.7746C40.846 33.1408 40.846 33.7343 41.2121 34.1004C41.5782 34.4666 42.1718 34.4666 42.5379 34.1004L44.4129 32.2255C44.779 31.8593 44.779 31.2658 44.4129 30.8996C44.0468 30.5335 43.4532 30.5335 43.0871 30.8996Z" fill="#606060"/>
<path d="M49.5794 32.2254C49.9455 31.8593 49.9455 31.2657 49.5794 30.8996C49.2134 30.5335 48.6197 30.5335 48.2536 30.8996L46.3786 32.7746C46.0125 33.1407 46.0125 33.7343 46.3786 34.1004C46.7447 34.4665 47.3383 34.4666 47.7044 34.1004L49.5794 32.2254Z" fill="#606060"/>
<path d="M54.1231 42.9589C54.3804 42.8662 54.6774 42.8125 55.0625 42.8125C55.5802 42.8125 56 42.3927 56 41.875C56 41.3573 55.5802 40.9375 55.0625 40.9375C54.6166 40.9375 54.2305 40.9884 53.8904 41.0727C53.5781 39.9381 52.9683 38.9258 52.1502 38.125H55.0625C55.5802 38.125 56 37.7052 56 37.1875C56 33.8821 54.2947 30.7901 51.1982 28.481C48.1881 26.2362 44.2111 25 40 25C35.7889 25 31.8119 26.2362 28.8018 28.481C25.7053 30.7901 24 33.8821 24 37.1875C24 37.7052 24.4197 38.125 24.9375 38.125H27.8498C27.0317 38.9258 26.4218 39.9381 26.1096 41.0727C25.7695 40.9884 25.3834 40.9375 24.9375 40.9375C24.4197 40.9375 24 41.3573 24 41.875C24 42.3927 24.4197 42.8125 24.9375 42.8125C25.3226 42.8125 25.6196 42.8662 25.8769 42.9589C25.916 44.7354 26.6646 46.3398 27.8498 47.5H24.9375C24.4197 47.5 24 47.9198 24 48.4375C24 52.0561 26.9439 55 30.5625 55H49.4375C53.0561 55 56 52.0561 56 48.4375C56 47.9198 55.5802 47.5 55.0625 47.5H52.1502C53.3354 46.3398 54.084 44.7354 54.1231 42.9589ZM25.9332 36.25C26.2261 33.9004 27.6168 31.7036 29.9226 29.9841C32.6112 27.9792 36.1901 26.875 40 26.875C43.8099 26.875 47.3888 27.9792 50.0774 29.9841C52.3833 31.7036 53.7739 33.9004 54.0668 36.25H25.9332ZM32.4375 38.125H47.5625C49.8482 38.125 51.756 39.7699 52.1669 41.938C52.1101 41.98 52.0544 42.0217 52 42.0625C51.4194 42.4979 51 42.8125 50.0625 42.8125C49.1189 42.8125 48.6851 42.4951 48.0848 42.0559C47.4039 41.5576 46.5564 40.9375 45 40.9375C43.4375 40.9375 42.6057 41.5613 41.9375 42.0625C41.3569 42.4979 40.9375 42.8125 40 42.8125C39.0625 42.8125 38.6431 42.4979 38.0625 42.0625C37.3942 41.5613 36.5625 40.9375 35 40.9375C33.4436 40.9375 32.5961 41.5576 31.9152 42.0559C31.3149 42.4951 30.8811 42.8125 29.9375 42.8125C29 42.8125 28.5806 42.4979 28 42.0625C27.9456 42.0217 27.8899 41.98 27.8331 41.938C28.244 39.7699 30.1518 38.125 32.4375 38.125ZM54.0308 49.375C53.5953 51.5119 51.7012 53.125 49.4375 53.125H30.5625C28.2988 53.125 26.4047 51.5119 25.9692 49.375H54.0308ZM32.4375 47.5C30.3626 47.5 28.5994 46.1444 27.9841 44.2728C28.4862 44.5122 29.1091 44.6875 29.9375 44.6875C31.4939 44.6875 32.3414 44.0674 33.0223 43.5691C33.6226 43.1299 34.0564 42.8125 35 42.8125C35.9375 42.8125 36.3569 43.1271 36.9375 43.5625C37.6058 44.0637 38.4375 44.6875 40 44.6875C41.5625 44.6875 42.3943 44.0637 43.0625 43.5625C43.6431 43.1271 44.0625 42.8125 45 42.8125C45.9436 42.8125 46.3774 43.1299 46.9777 43.5691C47.6586 44.0674 48.5061 44.6875 50.0625 44.6875C50.8909 44.6875 51.5138 44.5122 52.0159 44.2728C51.4006 46.1444 49.6374 47.5 47.5625 47.5H32.4375Z" fill="#606060"/>
</svg>
