<svg width="36" height="36" viewBox="0 0 36 36" fill="none" xmlns="http://www.w3.org/2000/svg">
<g opacity="0.8" clip-path="url(#clip0_31_684)">
<path d="M33.9069 30.1514H25.9365C26.7875 29.264 27.5089 28.2516 28.0607 27.1587C28.2462 26.7914 28.4111 26.4176 28.5577 26.0386C29.3144 26.4921 30.1823 26.7362 31.0816 26.7362C33.7935 26.7362 35.9999 24.5298 35.9999 21.8178C35.9999 19.1059 33.7935 16.8995 31.0816 16.8995C30.2716 16.8995 29.4813 17.0994 28.7767 17.4733C28.4536 16.0859 28.1164 14.9842 28.0895 14.8966C27.9986 14.6018 27.7261 14.4006 27.4175 14.4006H14.4792V14.2476C14.4792 13.8593 14.1643 13.5444 13.7761 13.5444C13.3878 13.5444 13.073 13.8593 13.073 14.2476V14.4006H6.63122C6.32268 14.4006 6.05022 14.6017 5.95931 14.8965C5.90651 15.0676 4.66732 19.1149 4.66732 21.5963C4.66732 23.5527 5.11141 25.4241 5.98729 27.1587C6.53918 28.2516 7.26058 29.264 8.1115 30.1514H0.703179C0.388883 30.1514 0.112836 30.3599 0.0268443 30.6623C-0.0590775 30.9646 0.0660786 31.2872 0.333336 31.4525L2.06513 32.5236C4.62225 34.1052 7.56321 34.9412 10.5701 34.9412H13.9683C14.3566 34.9412 14.6714 34.6263 14.6714 34.2381C14.6714 33.8498 14.3566 33.5349 13.9683 33.5349H10.5701C7.97439 33.5349 5.43246 32.8526 3.18964 31.5576H31.4204C29.1776 32.8526 26.6356 33.5349 24.0399 33.5349H20.1509C19.7627 33.5349 19.4478 33.8498 19.4478 34.2381C19.4478 34.6263 19.7627 34.9412 20.1509 34.9412H24.0399C27.0468 34.9412 29.9876 34.1052 32.5448 32.5236L34.2767 31.4525C34.544 31.2871 34.6691 30.9646 34.5832 30.6623C34.4973 30.3599 34.2212 30.1514 33.9069 30.1514ZM31.0816 18.3056C33.0183 18.3056 34.5937 19.8811 34.5937 21.8177C34.5937 23.7544 33.0183 25.3298 31.0816 25.3298C30.3267 25.3298 29.602 25.0901 29.0019 24.648C29.4874 22.7382 29.4389 20.8495 29.0831 18.9297C29.6672 18.525 30.3637 18.3056 31.0816 18.3056ZM7.15778 15.8067H13.073V18.6545L10.7505 20.5709C10.5886 20.7044 10.4949 20.9034 10.4949 21.1132V26.033C10.4949 26.4213 10.8097 26.7362 11.198 26.7362H16.2083C16.5965 26.7362 16.9114 26.4213 16.9114 26.033V21.1132C16.9114 20.9104 16.8238 20.7175 16.6712 20.584L14.4792 18.6668V15.8068H26.8911C27.2846 17.188 27.626 18.591 27.8392 20.0121C28.0827 21.6357 27.8821 23.1527 27.5193 24.7406C26.8917 26.8515 25.6337 28.7338 23.8602 30.1512H10.188C7.57017 28.0592 6.07357 24.9546 6.07357 21.5963C6.07364 19.8048 6.83231 16.9492 7.15778 15.8067ZM13.7628 19.9084L15.5051 21.4324V25.3299H11.9011V21.4447L13.7628 19.9084Z" fill="#353536"/>
<path d="M19.3282 7.63809C19.3331 7.64252 19.8288 8.10475 20.1223 8.81828C20.5013 9.73959 20.3585 10.6487 19.6977 11.5205C19.4631 11.8299 19.5238 12.271 19.8333 12.5056C20.1388 12.7372 20.587 12.6751 20.8184 12.37C22.0429 10.7544 21.823 9.25591 21.4228 8.28328C21.039 7.35016 20.4144 6.73007 20.2931 6.61504C19.5961 5.8987 19.2523 5.15641 19.2711 4.40835C19.3014 3.20038 20.2567 2.29792 20.2753 2.28049C20.561 2.01928 20.5817 1.5761 20.3215 1.28922C20.0605 1.00171 19.6159 0.980056 19.3282 1.24092C19.2708 1.29309 17.9199 2.53903 17.8657 4.3552C17.8314 5.50748 18.3133 6.6021 19.2981 7.60884C19.3078 7.61903 19.3179 7.62867 19.3282 7.63809Z" fill="#353536"/>
<path d="M14.6554 7.82048C14.8326 7.82048 15.0102 7.75382 15.1469 7.61995C15.4245 7.34847 15.4295 6.90332 15.1579 6.62566C14.4541 5.90608 14.1068 5.16006 14.1256 4.40835C14.1559 3.20207 15.1085 2.30045 15.1298 2.28056C15.4154 2.01935 15.4363 1.5761 15.176 1.28922C14.915 1.00171 14.4704 0.980056 14.1827 1.24092C14.1253 1.29309 12.7744 2.53903 12.7202 4.3552C12.6859 5.50748 13.1678 6.6021 14.1526 7.60884C14.2904 7.74982 14.4728 7.82048 14.6554 7.82048Z" fill="#353536"/>
<path d="M17.673 33.8955C17.5275 33.541 17.1087 33.3693 16.7554 33.5152C16.4008 33.6616 16.2282 34.0792 16.3751 34.4335C16.5217 34.7873 16.9387 34.96 17.2926 34.8138C17.6462 34.6677 17.8201 34.2487 17.673 33.8955Z" fill="#353536"/>
</g>
<defs>
<clipPath id="clip0_31_684">
<rect width="36" height="36" fill="white"/>
</clipPath>
</defs>
</svg>
