<svg width="16" height="17" viewBox="0 0 16 17" fill="none" xmlns="http://www.w3.org/2000/svg">
<path d="M15.9999 7.5215V8.72316C15.9999 10.9485 15.2878 12.751 13.8636 14.1306C12.4394 15.5103 10.5998 16.2002 8.34486 16.2002C5.94154 16.2002 3.94619 15.4213 2.35881 13.8636C0.786272 12.2911 0 10.3773 0 8.12233C0 5.85253 0.778854 3.93136 2.33656 2.35881C3.9091 0.786271 5.85253 0 8.16684 0C9.6207 0 10.9485 0.333795 12.1501 1.00138C13.3518 1.65414 14.2864 2.52942 14.954 3.62724L12.3281 5.14044C11.9573 4.50252 11.3935 3.98328 10.6369 3.58273C9.89515 3.18217 9.06438 2.9819 8.14459 2.9819C6.66106 2.9819 5.43714 3.47146 4.47285 4.45059C3.52339 5.41489 3.04866 6.6388 3.04866 8.12233C3.04866 9.59103 3.5308 10.8075 4.4951 11.7718C5.47423 12.7213 6.7649 13.196 8.36712 13.196C9.55394 13.196 10.5331 12.9364 11.3045 12.4172C12.0908 11.8831 12.6249 11.1562 12.9067 10.2364H8.18909V7.5215H15.9999Z" fill="white"/>
</svg>
