<svg width="98" height="109" viewBox="0 0 98 109" fill="none" xmlns="http://www.w3.org/2000/svg">
<path d="M37.5862 29.4375H30.069V14.403C30.0691 13.7842 30.222 13.175 30.5141 12.6295C30.8062 12.084 31.2285 11.619 31.7434 11.2759L48.6572 0L52.8255 6.25435L37.5862 16.4139V29.4375Z" fill="#F9E109"/>
<path d="M52.8274 6.25796L37.5862 16.4062V29.4298H30.069V14.3954C30.0691 13.7778 30.2219 13.1699 30.5137 12.6256C30.8055 12.0813 31.2273 11.6176 31.7416 11.2757L33.6397 9.99778C35.1532 10.4977 36.7638 10.6306 38.3388 10.3855C39.9137 10.1404 41.4079 9.52443 42.6979 8.5883L50.5722 2.8564L52.8274 6.25796Z" fill="#FCBC04"/>
<path d="M54.5 109H13.1552L5.63793 43.2241H62.0172L54.5 109Z" fill="#F8664F"/>
<path d="M9.39655 35.7069H58.2586C59.2555 35.7069 60.2115 36.1029 60.9164 36.8078C61.6212 37.5126 62.0172 38.4687 62.0172 39.4655V43.2241H5.63793V39.4655C5.63793 38.4687 6.03393 37.5126 6.73881 36.8078C7.44368 36.1029 8.3997 35.7069 9.39655 35.7069Z" fill="#84D2F4"/>
<path d="M18.7931 28.1897H48.8621C49.8589 28.1897 50.8149 28.5857 51.5198 29.2905C52.2247 29.9954 52.6207 30.9514 52.6207 31.9483V35.7069H15.0345V31.9483C15.0345 30.9514 15.4305 29.9954 16.1354 29.2905C16.8402 28.5857 17.7963 28.1897 18.7931 28.1897Z" fill="#84D2F4"/>
<path d="M61.3783 48.8621H18.7931C29.627 59.6949 43.979 66.2943 59.2547 67.4672L54.5 109H13.1552L5.63793 43.2241H62.0172L61.3783 48.8621Z" fill="#CC5144"/>
<path d="M62.0172 39.4655V43.2241H5.63793V39.4655C5.64091 38.4696 6.03786 37.5153 6.74209 36.8111C7.44633 36.1068 8.40062 35.7099 9.39655 35.7069C9.39953 36.7028 9.79648 37.6571 10.5007 38.3614C11.2049 39.0656 12.1592 39.4625 13.1552 39.4655H62.0172Z" fill="#57B7EB"/>
<path d="M52.6207 31.9483V35.7069H15.0345V31.9483C15.0375 30.9523 15.4344 29.998 16.1386 29.2938C16.8429 28.5896 17.7972 28.1926 18.7931 28.1897C18.7961 29.1856 19.193 30.1399 19.8973 30.8441C20.6015 31.5484 21.5558 31.9453 22.5517 31.9483H52.6207Z" fill="#57B7EB"/>
<path d="M73.2931 37.5862L69.5345 84.569L67.6552 105.241L77.0517 107.121L82.6897 39.4655L77.0517 36.4586L73.2931 37.5862Z" fill="#E59730"/>
<path d="M62.0172 46.9828L65.7759 92.0862H77.0517L73.2931 45.1034L67.6552 39.4655L62.0172 46.9828Z" fill="#FCBC04"/>
<path d="M77.0517 92.0861H65.7759L62.0172 46.9827L64.2348 44.0321L67.6552 71.4137H69.5345L71.5829 59.4613L73.2931 58.2585L74.4395 59.4049L77.0517 92.0861Z" fill="#E59730"/>
<path d="M58.2586 52.6207L52.6902 50.7076L50.7414 56.3794L60.1379 86.4484L68.9087 82.6897L58.2586 52.6207Z" fill="#F9E109"/>
<path d="M68.9143 82.6897L60.1379 86.4483L50.7414 56.3793L52.6583 50.8353L56.0974 61.1716C58.1038 67.2057 61.7946 72.5398 66.7343 76.5443L68.9143 82.6897Z" fill="#FCBC04"/>
<path d="M92.0864 39.4655L84.4207 75.1724H92.0864L97.7243 48.8621L92.0864 39.4655Z" fill="#F9E109"/>
<path d="M91.8007 56.9901L94.8076 43.989L92.0864 39.4655L84.4207 75.1724H92.0864L94.6479 63.2219C93.5548 62.64 92.6837 61.7144 92.1691 60.5881C91.6545 59.4618 91.5251 58.1973 91.8007 56.9901Z" fill="#FCBC04"/>
<path d="M39.4655 50.7414L52.6207 86.4483L60.1379 84.569L46.9828 50.7414H39.4655Z" fill="#F9E109"/>
<path d="M39.4655 50.7414L52.6207 86.4483L56.3793 85.5086L42.9573 50.7414H39.4655Z" fill="#FCBC04"/>
<path d="M80.8103 45.1034L75.1724 90.2069L82.6897 88.3276L90.2069 48.8621L80.8103 45.1034Z" fill="#F9E109"/>
<path d="M85.9221 71.3574L82.6897 88.3276L75.1724 90.2069L80.8103 45.1034L84.4562 46.5693L82.9528 67.674C82.8942 68.5487 83.1672 69.4135 83.7174 70.0961C84.2677 70.7787 85.0548 71.229 85.9221 71.3574Z" fill="#FCBC04"/>
<path d="M78.931 92.0862H71.4138L73.2931 58.2586L80.8103 60.1379L78.931 92.0862Z" fill="#F9E109"/>
<path d="M76.5481 74.3587L76.9728 59.1795L73.2931 58.2586L71.4138 92.0862H78.931L79.6696 79.5437C78.7102 79.0656 77.907 78.3239 77.3541 77.4055C76.8013 76.4872 76.5216 75.4303 76.5481 74.3587Z" fill="#FCBC04"/>
<path d="M88.3276 67.6552C88.3276 74.9206 80.7558 80.8103 71.4138 80.8103C62.0717 80.8103 54.5 74.9206 54.5 67.6552H45.1034L50.7414 109H92.0862L97.7241 67.6552H88.3276Z" fill="#84D2F4"/>
<path d="M93.1198 101.483L92.0862 109H50.7414L45.1034 67.6552H54.5C54.5327 69.2455 54.8954 70.8117 55.5651 72.2545C56.2347 73.6973 57.1967 74.9853 58.3902 76.0369C59.4898 83.1267 63.0897 89.5892 68.539 94.2561C73.9883 98.923 80.9275 101.486 88.1021 101.483H93.1198Z" fill="#57B7EB"/>
<path d="M71.4138 101.483C74.5275 101.483 77.0517 98.9586 77.0517 95.8448C77.0517 92.7311 74.5275 90.2069 71.4138 90.2069C68.3 90.2069 65.7759 92.7311 65.7759 95.8448C65.7759 98.9586 68.3 101.483 71.4138 101.483Z" fill="#F9E109"/>
<path d="M76.0933 98.9832C75.4197 99.9856 74.442 100.745 73.3041 101.15C72.1663 101.555 70.9285 101.584 69.7731 101.232C68.6176 100.881 67.6055 100.168 66.8859 99.1978C66.1663 98.2279 65.7772 97.0525 65.7759 95.8448C65.7721 94.6942 66.1268 93.5709 66.7907 92.6312C69.4623 95.3173 72.6189 97.4727 76.0933 98.9832Z" fill="#FCBC04"/>
<path d="M45.1034 90.2069H11.2759C9.28217 90.2069 7.37013 89.4149 5.96037 88.0051C4.55061 86.5954 3.75862 84.6834 3.75862 82.6897C3.75862 80.696 4.55061 78.7839 5.96037 77.3742C7.37013 75.9644 9.28217 75.1724 11.2759 75.1724H45.1034C47.0971 75.1724 49.0092 75.9644 50.4189 77.3742C51.8287 78.7839 52.6207 80.696 52.6207 82.6897C52.6207 84.6834 51.8287 86.5954 50.4189 88.0051C49.0092 89.4149 47.0971 90.2069 45.1034 90.2069Z" fill="#F89C8D"/>
<path d="M48.8621 86.4483C49.9262 86.4474 50.9775 86.2166 51.9442 85.7717C51.5813 86.6059 51.0649 87.3646 50.4219 88.0081C49.0081 89.4132 47.0968 90.2033 45.1035 90.2069H11.2759C9.78828 90.2081 8.33375 89.7678 7.09646 88.9419C5.85917 88.116 4.89475 86.9415 4.3253 85.5672C3.75585 84.1929 3.60697 82.6805 3.89752 81.2215C4.18806 79.7625 4.90496 78.4225 5.95746 77.3712C6.60102 76.7282 7.35963 76.2119 8.19384 75.849C9.16048 75.4041 10.2118 75.1733 11.2759 75.1724H45.1035C46.9307 75.175 48.6945 75.8431 50.0649 77.0517C51.0006 77.86 51.7125 78.8955 52.1321 80.0586C51.7881 80.6792 51.2842 81.1964 50.6729 81.5566C50.0615 81.9168 49.365 82.1069 48.6554 82.1071C48.0366 82.1069 47.4259 81.9655 46.8701 81.6936C46.3227 81.4156 45.7174 81.2708 45.1035 81.2708C44.4896 81.2708 43.8843 81.4156 43.3369 81.6936L39.3528 83.6857C38.8054 83.9637 38.2002 84.1085 37.5863 84.1085C36.9723 84.1085 36.3671 83.9637 35.8197 83.6857L31.8356 81.6936C31.2882 81.4156 30.6829 81.2708 30.069 81.2708C29.4551 81.2708 28.8498 81.4156 28.3025 81.6936L24.3183 83.6857C23.7709 83.9637 23.1657 84.1085 22.5518 84.1085C21.9379 84.1085 21.3326 83.9637 20.7852 83.6857L16.8011 81.6936C16.2537 81.4156 15.6484 81.2708 15.0345 81.2708C14.4206 81.2708 13.8154 81.4156 13.268 81.6936L10.2423 83.2159C9.89298 83.3833 9.52784 83.5155 9.15229 83.6105C9.85471 84.4971 10.7489 85.2131 11.7677 85.7046C12.7865 86.1961 13.9034 86.4503 15.0345 86.4483H48.8621Z" fill="#F8664F"/>
<path d="M0 97.7241H56.3793V101.483C56.3793 103.476 55.5873 105.388 54.1776 106.798C52.7678 108.208 50.8558 109 48.8621 109H7.51724C5.52354 109 3.6115 108.208 2.20175 106.798C0.791992 105.388 0 103.476 0 101.483V97.7241Z" fill="#FCBC04"/>
<path d="M33.4517 97.7241L31.9483 99.6034L30.4448 97.7241H33.4517Z" fill="#E59730"/>
<path d="M33.4517 97.7241L31.9483 99.6034L30.4448 97.7241H33.4517Z" fill="#E59730"/>
<path d="M48.8621 97.7241H7.51724C6.52039 97.7241 5.56437 97.3281 4.8595 96.6233C4.15462 95.9184 3.75862 94.9624 3.75862 93.9655C3.75862 92.9687 4.15462 92.0126 4.8595 91.3078C5.56437 90.6029 6.52039 90.2069 7.51724 90.2069H48.8621C49.8589 90.2069 50.8149 90.6029 51.5198 91.3078C52.2247 92.0126 52.6207 92.9687 52.6207 93.9655C52.6207 94.9624 52.2247 95.9184 51.5198 96.6233C50.8149 97.3281 49.8589 97.7241 48.8621 97.7241Z" fill="#CC5144"/>
<path d="M33.8276 99.6034L26.3103 90.2069H41.3448L33.8276 99.6034Z" fill="#F7F754"/>
<path d="M33.183 92.2215L31.5724 90.2069H26.3103L33.8276 99.6034L38.0842 94.2831C37.1603 94.3736 36.2284 94.2324 35.3727 93.8725C34.517 93.5126 33.7645 92.9452 33.183 92.2215Z" fill="#F9E109"/>
<path d="M1.87931 75.1724C1.87904 76.3018 2.19347 77.409 2.78734 78.3696C3.3812 79.3303 4.231 80.1065 5.2414 80.6111L6.67719 81.329C7.52138 81.7517 8.45247 81.9718 9.39655 81.9718C10.3406 81.9718 11.2717 81.7517 12.1159 81.329L15.1397 79.8256C15.6906 79.5503 16.298 79.407 16.9138 79.407C17.5296 79.407 18.137 79.5503 18.6879 79.8256L22.657 81.8101C23.2078 82.0854 23.8152 82.2287 24.431 82.2287C25.0469 82.2287 25.6542 82.0854 26.2051 81.8101L30.1742 79.8256C30.7251 79.5503 31.3325 79.407 31.9483 79.407C32.5641 79.407 33.1715 79.5503 33.7224 79.8256L37.6915 81.8101C38.2423 82.0854 38.8497 82.2287 39.4655 82.2287C40.0813 82.2287 40.6887 82.0854 41.2396 81.8101L45.2087 79.8256C45.7596 79.5503 46.3669 79.407 46.9828 79.407C47.5986 79.407 48.206 79.5503 48.7568 79.8256C49.3624 80.1281 50.0352 80.2708 50.7114 80.24C51.3876 80.2092 52.0447 80.006 52.6202 79.6497C53.1957 79.2934 53.6706 78.7958 53.9996 78.2043C54.3286 77.6127 54.5009 76.9468 54.5 76.2699V75.1724H1.87931Z" fill="#C4F236"/>
<path d="M37.5862 56.3793H18.7931C13.8089 56.3793 9.02876 58.3593 5.50437 61.8837C1.97998 65.4081 0 70.1882 0 75.1724H56.3793C56.3793 70.1882 54.3993 65.4081 50.8749 61.8837C47.3505 58.3593 42.5704 56.3793 37.5862 56.3793Z" fill="#FCBC04"/>
<path d="M56.3793 75.1725H0C0.00171975 71.0675 1.34749 67.0759 3.83164 63.8078C6.31579 60.5397 9.80167 58.1749 13.7565 57.0748C14.7333 60.6529 16.859 63.8107 19.8066 66.0621C22.7541 68.3135 26.36 69.5336 30.069 69.5346H55.5148C56.0908 71.3583 56.3824 73.26 56.3793 75.1725Z" fill="#E59730"/>
<path d="M56.3793 101.483C56.3793 103.476 55.5873 105.388 54.1776 106.798C52.7678 108.208 50.8558 109 48.8621 109H7.51724C5.52354 109 3.6115 108.208 2.20175 106.798C0.791992 105.388 0 103.476 0 101.483V97.7241H4.00293C4.41699 99.3381 5.35656 100.768 6.67346 101.789C7.99035 102.81 9.60962 103.363 11.2759 103.362H50.7414C52.7758 103.37 54.7566 102.71 56.3793 101.483Z" fill="#E59730"/>
<path d="M54.5 75.1724V76.2624C54.5082 76.5287 54.4765 76.7948 54.4061 77.0517H5.07417C5.61768 77.7609 6.31907 78.3336 7.12262 78.7243L8.5509 79.4572C9.39871 79.8744 10.331 80.0914 11.2759 80.0914C12.2208 80.0914 13.1531 79.8744 14.0009 79.4572L17.0266 77.935C17.574 77.657 18.1792 77.5121 18.7931 77.5121C19.4071 77.5121 20.0123 77.657 20.5597 77.935L24.5438 79.9271C25.0912 80.205 25.6965 80.3499 26.3104 80.3499C26.9243 80.3499 27.5295 80.205 28.0769 79.9271L32.0611 77.935C32.6084 77.657 33.2137 77.5121 33.8276 77.5121C34.4415 77.5121 35.0468 77.657 35.5942 77.935L39.5783 79.9271C40.1257 80.205 40.7309 80.3499 41.3449 80.3499C41.9588 80.3499 42.564 80.205 43.1114 79.9271L47.0955 77.935C47.6429 77.657 48.2482 77.5121 48.8621 77.5121C49.476 77.5121 50.0813 77.657 50.6286 77.935C51.1707 78.2064 51.768 78.3493 52.3742 78.3525C52.9804 78.3558 53.5792 78.2193 54.1242 77.9538C53.8016 78.6331 53.2933 79.2071 52.6581 79.6095C52.0228 80.012 51.2866 80.2263 50.5347 80.2278C49.9158 80.2276 49.3052 80.0862 48.7493 79.8143C48.202 79.5363 47.5967 79.3915 46.9828 79.3915C46.3689 79.3915 45.7636 79.5363 45.2162 79.8143L41.2321 81.8064C40.6847 82.0844 40.0795 82.2292 39.4655 82.2292C38.8516 82.2292 38.2464 82.0844 37.699 81.8064L33.7149 79.8143C33.1675 79.5363 32.5622 79.3915 31.9483 79.3915C31.3344 79.3915 30.7291 79.5363 30.1818 79.8143L26.1976 81.8064C25.6502 82.0844 25.045 82.2292 24.4311 82.2292C23.8171 82.2292 23.2119 82.0844 22.6645 81.8064L18.6804 79.8143C18.133 79.5363 17.5277 79.3915 16.9138 79.3915C16.2999 79.3915 15.6947 79.5363 15.1473 79.8143L12.1216 81.3365C11.2738 81.7538 10.3415 81.9707 9.39659 81.9707C8.45168 81.9707 7.5194 81.7538 6.67159 81.3365L5.24331 80.6036C4.23039 80.104 3.37807 79.3301 2.78335 78.3699C2.18864 77.4097 1.87542 76.3018 1.87935 75.1724H54.5Z" fill="#A1D51C"/>
<path d="M31.9483 65.7759C32.9862 65.7759 33.8276 64.9345 33.8276 63.8966C33.8276 62.8586 32.9862 62.0172 31.9483 62.0172C30.9104 62.0172 30.069 62.8586 30.069 63.8966C30.069 64.9345 30.9104 65.7759 31.9483 65.7759Z" fill="#F9E109"/>
<path d="M24.431 63.8966C25.4689 63.8966 26.3103 63.0552 26.3103 62.0172C26.3103 60.9793 25.4689 60.1379 24.431 60.1379C23.3931 60.1379 22.5517 60.9793 22.5517 62.0172C22.5517 63.0552 23.3931 63.8966 24.431 63.8966Z" fill="#F9E109"/>
<path d="M18.7931 67.6552C19.831 67.6552 20.6724 66.8138 20.6724 65.7759C20.6724 64.7379 19.831 63.8966 18.7931 63.8966C17.7552 63.8966 16.9138 64.7379 16.9138 65.7759C16.9138 66.8138 17.7552 67.6552 18.7931 67.6552Z" fill="#F9E109"/>
<path d="M46.9828 67.6552C48.0207 67.6552 48.8621 66.8138 48.8621 65.7759C48.8621 64.7379 48.0207 63.8966 46.9828 63.8966C45.9448 63.8966 45.1034 64.7379 45.1034 65.7759C45.1034 66.8138 45.9448 67.6552 46.9828 67.6552Z" fill="#F9E109"/>
<path d="M11.2759 65.7759C12.3138 65.7759 13.1552 64.9345 13.1552 63.8966C13.1552 62.8586 12.3138 62.0172 11.2759 62.0172C10.2379 62.0172 9.39655 62.8586 9.39655 63.8966C9.39655 64.9345 10.2379 65.7759 11.2759 65.7759Z" fill="#FCBC04"/>
<path d="M39.4655 63.8966C40.5034 63.8966 41.3448 63.0552 41.3448 62.0172C41.3448 60.9793 40.5034 60.1379 39.4655 60.1379C38.4276 60.1379 37.5862 60.9793 37.5862 62.0172C37.5862 63.0552 38.4276 63.8966 39.4655 63.8966Z" fill="#F9E109"/>
<path d="M20.5033 66.5653C20.325 66.9566 20.0179 67.275 19.6332 67.4672C19.2485 67.6595 18.8095 67.714 18.3895 67.6216C17.9695 67.5293 17.5938 67.2956 17.3253 66.9597C17.0567 66.6239 16.9115 66.206 16.9138 65.776C16.9169 65.4688 16.9935 65.1668 17.1374 64.8954C17.2813 64.624 17.4882 64.3911 17.7407 64.2161H17.7595C18.5845 65.0982 19.5047 65.8861 20.5033 66.5653Z" fill="#FCBC04"/>
</svg>
