<svg width="104" height="104" viewBox="0 0 104 104" fill="none" xmlns="http://www.w3.org/2000/svg">
<g clip-path="url(#clip0_114_409)">
<path d="M103.939 30.0016C103.878 29.7577 103.756 29.5141 103.695 29.3311L97.9064 17.7532L52.0001 11.6594L6.09385 17.7532L0.304988 29.3311C0.244051 29.5141 0.121973 29.7577 0.0610352 30.0016L52.0001 36.0954L103.939 30.0016ZM96.5198 45.6652C95.645 45.1058 94.556 45.0136 93.6216 45.4391C89.6564 47.1955 84.4989 44.1235 84.4989 39.2026C84.4989 37.5184 83.1361 36.1557 81.452 36.1557C79.7679 36.1557 78.4051 37.5184 78.4051 39.2026C78.4051 42.898 75.1968 45.9063 71.5013 45.9063C67.8059 45.9063 64.7945 42.898 64.7945 39.2026C64.7945 37.5184 63.4318 36.1557 61.7477 36.1557C60.0636 36.1557 58.7008 37.5184 58.7008 39.2026C58.7008 42.898 55.6956 45.9063 52.0001 45.9063C48.3046 45.9063 45.2994 42.898 45.2994 39.2026C45.2994 37.5184 43.9366 36.1557 42.2525 36.1557C40.5684 36.1557 39.2057 37.5184 39.2057 39.2026C39.2057 42.898 36.1945 45.9063 32.4989 45.9063C28.8032 45.9063 25.5951 42.898 25.5951 39.2026C25.5951 37.5184 24.2323 36.1557 22.5482 36.1557C20.8641 36.1557 19.5013 37.5184 19.5013 39.2026C19.5013 44.1257 14.345 47.1961 10.3786 45.4391C9.45029 45.0136 8.34935 45.1058 7.48038 45.6652C6.6175 46.2276 6.09385 47.1886 6.09385 48.2211V97.7032C6.09385 99.3859 7.45804 100.75 9.14072 100.75H18.2813C21.6469 100.75 24.3751 98.0217 24.3751 94.6563V64.1875H42.8595V94.6563C42.8595 98.0217 45.5876 100.75 48.9532 100.75H94.8595C96.5422 100.75 97.9064 99.3859 97.9064 97.7032V48.2211C97.9064 47.1886 97.3827 46.2276 96.5198 45.6652Z" fill="#FFBC41"/>
<path d="M97.9062 6.29688C97.9062 5.44375 97.5402 4.7125 96.992 4.16386C96.4437 3.61563 95.7125 3.25 94.8594 3.25H9.14062C8.2875 3.25 7.55625 3.61563 7.00802 4.16386C6.45978 4.7125 6.09375 5.44375 6.09375 6.29688V17.7531H97.9062V6.29688ZM103.939 30.0016H0.0609375C0 30.1844 0 30.4279 0 30.6719V39.2029C0 46.1608 5.67125 52 12.7967 52C16.7125 52 20.2792 50.2361 22.5465 47.4906C24.8404 50.2663 28.3859 52 32.5002 52C36.4177 52 39.9825 50.2346 42.25 47.4906C44.5248 50.243 48.0927 52 52 52C55.9095 52 59.4762 50.242 61.7498 47.4906C64.0193 50.2369 67.5866 52 71.4996 52C75.6143 52 79.1596 50.2661 81.4533 47.4906C83.7216 50.2371 87.2895 52 91.2031 52C98.204 52 104 46.2495 104 39.2029V30.6719C104 30.4279 104 30.1844 103.939 30.0016ZM45.9062 58.0938H21.3281C19.6454 58.0938 18.2812 59.4579 18.2812 61.1406V100.75H48.9531V61.1406C48.9531 59.4579 47.5889 58.0938 45.9062 58.0938ZM82.6719 58.0938H58.0938C56.4096 58.0938 55.0469 59.4565 55.0469 61.1406V85.5156C55.0469 87.1997 56.4096 88.5625 58.0938 88.5625H82.6719C84.356 88.5625 85.7188 87.1997 85.7188 85.5156V61.1406C85.7188 59.4565 84.356 58.0938 82.6719 58.0938Z" fill="#FFEAC3"/>
<path d="M5.57129 6.78564C5.57129 4.5765 7.36215 2.78564 9.57129 2.78564H93.4999C95.709 2.78564 97.4999 4.57651 97.4999 6.78564V17.6428H5.57129V6.78564Z" fill="#32393F"/>
</g>
<defs>
<clipPath id="clip0_114_409">
<rect width="104" height="104" fill="white"/>
</clipPath>
</defs>
</svg>
