<svg width="120" height="120" viewBox="0 0 120 120" fill="none" xmlns="http://www.w3.org/2000/svg">
<path d="M52.9688 0C47.153 0 42.4219 4.73109 42.4219 10.5469V14.2969L49.4531 17.8125H52.9688H56.4844L63.5156 14.2969V10.5469C63.5156 4.73109 58.7845 0 52.9688 0Z" fill="#FF6A4D"/>
<path d="M63.5156 14.2969V10.5469C63.5156 4.73109 58.7845 0 52.9688 0V17.8125H56.4844L63.5156 14.2969Z" fill="#E64D2E"/>
<path d="M0 105.938C1.62914 113.961 9.07406 120 17.5781 120C26.0822 120 33.7615 113.961 35.3906 105.938L27.7528 102.422H4.88062L0 105.938Z" fill="#474F54"/>
<path d="M17.5781 112.969C11.7623 112.969 7.03125 108.238 7.03125 102.422C7.03125 96.6061 11.7623 91.875 17.5781 91.875C23.3939 91.875 28.3594 96.6061 28.3594 102.422C28.3594 108.238 23.3939 112.969 17.5781 112.969Z" fill="#FFEAC3"/>
<path d="M35.3906 42.6562H14.0625L7.03125 49.6875V70.7812L14.0625 74.2969H35.3906L45.9375 70.7812V51.7969L42.4219 49.6875L35.3906 42.6562Z" fill="#FF9100"/>
<path d="M7.03125 35.625V49.6875H42.4219L45.9375 47.8676L42.4219 46.1719V35.625H7.03125Z" fill="#FFBC41"/>
<path d="M56.4844 105.938H0V102.422C0 88.8305 11.2523 77.8125 24.8438 77.8125L30.7031 74.2969H63.5156V100.078L56.4844 105.938Z" fill="#FFBC41"/>
<path d="M0 70.7812H49.4531V77.8125H0V70.7812Z" fill="#C9922C"/>
<path d="M74.0625 88.5701V101.789L70.5469 105.938H56.4844V77.8125H49.4531C45.5859 77.8125 42.4219 74.6484 42.4219 70.7812V53.2031H63.5156V63.75C67.3828 63.75 70.5469 66.9141 70.5469 70.7812V84.8438L74.0625 88.5701Z" fill="#7D5915"/>
<path d="M74.0625 88.5701V101.789L70.5469 105.938H56.4844V77.8125H52.9688V53.2031H63.5156V63.75C67.3828 63.75 70.5469 66.9141 70.5469 70.7812V84.8438L74.0625 88.5701Z" fill="#C9922C"/>
<path d="M63.5156 49.6875V46.1719C63.5156 40.3561 58.7845 35.625 52.9688 35.625C47.153 35.625 42.4219 40.3561 42.4219 46.1719V53.2031C42.4219 59.028 47.1438 63.75 52.9688 63.75H81.3281C87.153 63.75 91.875 59.028 91.875 53.2031V49.6875H63.5156Z" fill="#FF6A4D"/>
<path d="M91.875 53.2031V49.6875H63.5156V46.1719C63.5156 40.3561 58.7845 35.625 52.9688 35.625V63.75H81.3281C87.153 63.75 91.875 59.028 91.875 53.2031Z" fill="#E64D2E"/>
<path d="M56.4844 17.8125H52.9688H49.4531L42.4219 21.3281V24.8438C42.4219 30.6595 47.153 35.625 52.9688 35.625C58.7845 35.625 63.5156 30.6595 63.5156 24.8438V21.3281L56.4844 17.8125Z" fill="#FFE1BA"/>
<path d="M63.5156 24.8438V21.3281L56.4844 17.8125H52.9688V35.625C58.7845 35.625 63.5156 30.6595 63.5156 24.8438Z" fill="#FFBFAB"/>
<path d="M52.9688 14.2969H42.4219V21.3281H52.9688H70.5469V14.2969H52.9688Z" fill="#C9922C"/>
<path d="M52.9688 14.2969H70.5469V21.3281H52.9688V14.2969Z" fill="#7D5915"/>
<path d="M101.564 71.5673C101.176 68.831 100.406 63.4409 98.872 52.7051L84.8438 46.1719V74.2969C84.8438 79.8429 80.066 84.8438 74.0625 84.8438H70.5469V105.938H77.5781H112.969L120 102.422V95.3906C120 84.1434 112.241 74.3381 101.564 71.5673Z" fill="#FFBC41"/>
<path d="M105.938 56.7188H95.3906C89.5748 56.7188 84.8438 51.9877 84.8438 46.1719C84.8438 40.3561 89.5748 35.625 95.3906 35.625H105.938V56.7188Z" fill="#FFA705"/>
<path d="M103.478 84.9507L102.456 88.8572L96.5145 85.9386C89.734 88.3787 84.8438 94.8118 84.8438 102.422C84.8438 112.114 92.7298 120 102.422 120C112.114 120 120 112.114 120 102.422C120 93.0917 112.67 85.5094 103.478 84.9507Z" fill="#32393F"/>
<path d="M102.422 91.875C96.6061 91.875 91.875 96.6061 91.875 102.422C91.875 108.238 96.6061 112.969 102.422 112.969C108.238 112.969 112.969 108.238 112.969 102.422C112.969 96.6061 108.238 91.875 102.422 91.875Z" fill="#FFEAC3"/>
<path d="M105.903 101.924L103.479 84.9506C103.122 84.9291 102.784 84.8438 102.422 84.8438C100.34 84.8438 98.3693 85.2712 96.5146 85.9385L98.9407 102.92L105.903 101.924Z" fill="#FECD74"/>
</svg>
