<svg width="112" height="112" viewBox="0 0 112 112" fill="none" xmlns="http://www.w3.org/2000/svg">
<path d="M77.1623 63.7603H19.4204L69.4223 31.9685C69.5678 31.876 69.6936 31.7558 69.7926 31.6147C69.8916 31.4735 69.9619 31.3143 69.9993 31.146C70.0368 30.9777 70.0407 30.8037 70.0109 30.6339C69.9811 30.4641 69.9182 30.3018 69.8256 30.1564L64.8716 22.3649C63.7418 20.5923 61.955 19.3401 59.9032 18.8833C57.8513 18.4265 55.702 18.8022 53.9269 19.9281L46.8908 24.4017L47.4482 21.7349C47.6679 20.7708 47.6949 19.7727 47.5277 18.7981C47.3605 17.8234 47.0024 16.8914 46.4739 16.0556C45.9454 15.2198 45.257 14.4967 44.4481 13.9278C43.6393 13.3588 42.7261 12.9553 41.7608 12.7404C40.7956 12.5255 39.7974 12.5035 38.8236 12.6755C37.8498 12.8476 36.9196 13.2103 36.0865 13.743C35.2533 14.2756 34.5336 14.9677 33.9687 15.7793C33.4038 16.5909 33.0049 17.5062 32.7948 18.4725L29.1394 34.8906L16.9002 32.1662C15.0749 31.7595 13.1635 32.0486 11.5403 32.9771C9.91705 33.9056 8.69881 35.4065 8.12412 37.186C7.54942 38.9656 7.65965 40.8955 8.43322 42.5981C9.2068 44.3006 10.588 45.6531 12.3064 46.3907L4.76872 51.1835C2.99612 52.3133 1.74404 54.1001 1.2872 56.1519C0.830352 58.2036 1.20604 60.3529 2.33185 62.128L7.28588 69.9197C7.37834 70.0651 7.49856 70.191 7.63966 70.29C7.78076 70.389 7.93998 70.4593 8.10824 70.4968C8.27649 70.5342 8.45048 70.5382 8.62027 70.5084C8.79006 70.4787 8.95232 70.4157 9.09779 70.3232L13.709 67.392V100.618C13.7114 102.72 14.5475 104.735 16.034 106.221C17.5204 107.708 19.5358 108.544 21.6378 108.546H70.5469C72.6489 108.544 74.6641 107.707 76.1504 106.221C77.6368 104.735 78.4729 102.72 78.4752 100.618V65.0728C78.4752 64.9004 78.4413 64.7297 78.3753 64.5704C78.3093 64.4112 78.2126 64.2665 78.0907 64.1446C77.9687 64.0227 77.824 63.926 77.6647 63.8601C77.5054 63.7942 77.3347 63.7603 77.1623 63.7603ZM55.3354 22.1436C56.182 21.6022 57.1658 21.3142 58.1706 21.3136C58.5618 21.3138 58.9517 21.3569 59.3335 21.442C60.014 21.5917 60.658 21.8748 61.2284 22.275C61.7988 22.6752 62.2841 23.1845 62.6563 23.7735L66.9062 30.4574L46.2343 43.6012L39.1389 32.4419L55.3354 22.1436ZM35.357 19.0432C35.6405 17.7801 36.4143 16.6813 37.5079 15.9886C38.6016 15.2959 39.9257 15.0661 41.1889 15.3496C42.452 15.6332 43.5508 16.4069 44.2435 17.5006C44.9362 18.5943 45.166 19.9183 44.8824 21.1815L43.8049 26.3361L32.0652 33.8281L35.357 19.0432ZM36.9232 33.8504L44.0186 45.0097L32.0399 52.6257L24.9447 41.4664L36.9232 33.8504ZM11.1499 42.1122C10.6318 41.2975 10.367 40.3475 10.3889 39.3823C10.4108 38.4171 10.7184 37.4801 11.2729 36.6897C11.8273 35.8994 12.6037 35.2912 13.5038 34.9421C14.4039 34.593 15.3873 34.5187 16.3297 34.7285L26.9358 37.0897L15.1622 44.4701L14.208 44.2574C13.5817 44.1198 12.989 43.8593 12.4641 43.4911C11.9392 43.1228 11.4925 42.6542 11.1499 42.1122ZM8.79722 67.4038L4.54757 60.7197C3.7945 59.5323 3.54316 58.0947 3.84867 56.7223C4.15419 55.3498 4.99162 54.1546 6.17726 53.3988L22.7294 42.8749L29.8246 54.0342L8.79722 67.4038ZM34.2494 105.921H21.6378C20.2318 105.919 18.8838 105.36 17.8896 104.366C16.8954 103.372 16.3361 102.024 16.3345 100.618V66.3853H34.2501L34.2494 105.921ZM50.9322 105.921H36.8744V66.3853H50.9322V105.921ZM75.8498 100.618C75.8482 102.023 75.289 103.371 74.2948 104.366C73.3007 105.36 71.9528 105.919 70.5469 105.921H53.5572V66.3853H75.8498V100.618Z" fill="#0B0B0B"/>
<path d="M91.8384 51.8375L92.4663 48.1767C92.5076 47.9354 92.4806 47.6874 92.3883 47.4606C92.2961 47.2339 92.1422 47.0374 91.9442 46.8935C91.7462 46.7496 91.5118 46.6639 91.2677 46.6462C91.0235 46.6284 90.7792 46.6793 90.5625 46.7931L87.2751 48.5213L83.9875 46.7931C83.7707 46.6792 83.5264 46.6281 83.2821 46.6457C83.0378 46.6634 82.8034 46.749 82.6052 46.893C82.4071 47.0369 82.2532 47.2335 82.1609 47.4603C82.0686 47.6872 82.0417 47.9353 82.0831 48.1767L82.7109 51.8375L80.0513 54.4297C79.8759 54.6006 79.7518 54.8172 79.6931 55.055C79.6343 55.2928 79.6433 55.5423 79.719 55.7752C79.7947 56.0082 79.934 56.2153 80.1213 56.3732C80.3086 56.5311 80.5363 56.6334 80.7787 56.6686L84.4537 57.2028L86.0974 60.5333C86.2057 60.7529 86.3734 60.9379 86.5814 61.0673C86.7894 61.1966 87.0295 61.2651 87.2744 61.2651C87.5194 61.2651 87.7595 61.1966 87.9675 61.0673C88.1755 60.9379 88.3432 60.7529 88.4515 60.5333L90.095 57.2028L93.77 56.6686C94.0124 56.6334 94.2401 56.5311 94.4274 56.3732C94.6146 56.2153 94.754 56.0082 94.8297 55.7752C94.9053 55.5423 94.9143 55.2928 94.8556 55.055C94.7969 54.8172 94.6728 54.6006 94.4974 54.4297L91.8384 51.8375ZM89.0347 54.7031C88.8241 54.7337 88.6241 54.815 88.452 54.9401C88.2798 55.0652 88.1406 55.2302 88.0464 55.4211L87.2744 56.9856L86.5023 55.4211C86.4081 55.2303 86.2689 55.0652 86.0968 54.9402C85.9247 54.8151 85.7247 54.7337 85.5142 54.7031L83.7874 54.4522L85.0368 53.2344C85.1893 53.0859 85.3033 52.9026 85.369 52.7002C85.4348 52.4978 85.4504 52.2824 85.4144 52.0727L85.1193 50.3529L86.6637 51.1646C86.852 51.2638 87.0616 51.3156 87.2744 51.3156C87.4873 51.3156 87.6969 51.2638 87.8852 51.1646L89.4294 50.3529L89.1345 52.0727C89.0985 52.2824 89.114 52.4977 89.1798 52.7001C89.2455 52.9025 89.3594 53.0859 89.5118 53.2344L90.7613 54.4522L89.0347 54.7031Z" fill="#FFBC41"/>
<path d="M106.934 33.7531L103.325 32.8759L102.001 29.4059C101.914 29.177 101.764 28.9771 101.569 28.8288C101.374 28.6805 101.142 28.5896 100.898 28.5666C100.654 28.5436 100.409 28.5892 100.189 28.6984C99.9701 28.8076 99.7858 28.976 99.6572 29.1845L97.708 32.3461L93.9986 32.5327C93.754 32.545 93.5178 32.6255 93.3166 32.765C93.1153 32.9046 92.9572 33.0977 92.8599 33.3225C92.7627 33.5472 92.7303 33.7947 92.7664 34.0369C92.8025 34.2791 92.9056 34.5064 93.0641 34.6931L95.4684 37.5239L94.5 41.1092C94.4361 41.3456 94.4396 41.5952 94.5102 41.8298C94.5807 42.0643 94.7155 42.2744 94.8992 42.4363C95.0829 42.5982 95.3083 42.7055 95.5498 42.7461C95.7914 42.7866 96.0394 42.7587 96.2659 42.6656L99.7003 41.2538L102.812 43.2832C103.018 43.4169 103.256 43.4907 103.501 43.4961C103.746 43.5014 103.987 43.4382 104.198 43.3135C104.409 43.1888 104.58 43.0076 104.694 42.7905C104.807 42.5733 104.857 42.3288 104.838 42.0846L104.557 38.3812L107.448 36.05C107.638 35.8963 107.782 35.6923 107.863 35.4612C107.943 35.23 107.958 34.9809 107.904 34.7419C107.851 34.503 107.732 34.2838 107.56 34.109C107.389 33.9343 107.172 33.811 106.934 33.7531ZM102.372 36.7718C102.206 36.9054 102.075 37.0773 101.991 37.2726C101.907 37.4679 101.871 37.6808 101.887 37.8929L102.018 39.6327L100.557 38.6791C100.379 38.5629 100.175 38.4917 99.9629 38.4717C99.751 38.4518 99.5375 38.4836 99.3407 38.5645L97.7272 39.2277L98.1822 37.5434C98.2377 37.338 98.2424 37.1221 98.196 36.9145C98.1495 36.7068 98.0533 36.5136 97.9155 36.3514L96.7861 35.0216L98.5287 34.9341C98.7412 34.9235 98.948 34.8614 99.1312 34.7531C99.3144 34.6448 99.4685 34.4935 99.5802 34.3124L100.496 32.8273L101.117 34.4575C101.193 34.6562 101.316 34.8336 101.476 34.9742C101.636 35.1149 101.827 35.2146 102.034 35.2649L103.729 35.677L102.372 36.7718Z" fill="#FFBC41"/>
<path d="M87.6313 12.4169L86.6624 16.0023C86.5985 16.2387 86.602 16.4883 86.6725 16.7229C86.743 16.9574 86.8778 17.1676 87.0615 17.3295C87.2453 17.4915 87.4707 17.5988 87.7122 17.6393C87.9538 17.6799 88.2019 17.652 88.4284 17.5589L91.8628 16.1469L94.9736 18.1766C95.1787 18.3104 95.4172 18.3842 95.662 18.3895C95.9069 18.3949 96.1484 18.3316 96.3591 18.2069C96.5699 18.0822 96.7416 17.901 96.8547 17.6838C96.9679 17.4666 97.018 17.2221 96.9995 16.9779L96.7184 13.2744L99.6094 10.943C99.7999 10.7893 99.9437 10.5853 100.024 10.3542C100.105 10.123 100.12 9.87392 100.066 9.63498C100.013 9.39604 99.8936 9.17681 99.7221 9.00207C99.5506 8.82732 99.3336 8.70403 99.0957 8.64613L95.4864 7.76916L94.1629 4.29891C94.0757 4.07006 93.9261 3.87019 93.7311 3.72192C93.5362 3.57365 93.3036 3.48288 93.0598 3.4599C92.8159 3.43691 92.5705 3.48261 92.3513 3.59184C92.132 3.70107 91.9477 3.86946 91.8192 4.07798L89.8702 7.23935L86.1606 7.42573C85.916 7.438 85.6797 7.51846 85.4785 7.65801C85.2772 7.79756 85.119 7.99063 85.0218 8.2154C84.9245 8.44016 84.8921 8.68765 84.9282 8.92988C84.9643 9.17211 85.0674 9.39942 85.2259 9.5861L87.6313 12.4169ZM90.6918 9.82607C90.9043 9.8154 91.1111 9.75321 91.2942 9.64487C91.4774 9.53653 91.6314 9.38528 91.7431 9.20416L92.6588 7.71907L93.2805 9.3492C93.3563 9.54801 93.4794 9.72541 93.639 9.8661C93.7986 10.0068 93.9901 10.1066 94.1968 10.1568L95.8921 10.5687L94.5341 11.6638C94.3685 11.7973 94.2378 11.9692 94.1533 12.1645C94.0688 12.3598 94.0331 12.5727 94.0492 12.7849L94.1804 14.5248L92.719 13.5713C92.5407 13.455 92.3369 13.3839 92.1251 13.3639C91.9132 13.3439 91.6997 13.3758 91.5029 13.4567L89.8894 14.1199L90.3444 12.4355C90.4 12.2301 90.4047 12.0142 90.3583 11.8065C90.3118 11.5988 90.2155 11.4056 90.0778 11.2434L88.9484 9.91335L90.6918 9.82607Z" fill="#FFBC41"/>
<path d="M63.8194 52.0265C60.8563 53.8913 59.4086 56.151 59.3484 56.2464C59.162 56.5403 59.0999 56.8963 59.176 57.236C59.252 57.5757 59.4599 57.8713 59.7539 58.0577C60.0478 58.2442 60.4038 58.3062 60.7435 58.2302C61.0832 58.1541 61.3788 57.9462 61.5652 57.6523C61.7621 57.346 66.5109 50.1677 76.8471 52.7245C77.1837 52.8045 77.5383 52.7484 77.8337 52.5683C78.1292 52.3882 78.3415 52.0988 78.4247 51.7629C78.5078 51.4271 78.4549 51.072 78.2776 50.7749C78.1003 50.4778 77.8128 50.2627 77.4778 50.1765C71.1183 48.603 66.54 50.3139 63.8194 52.0265Z" fill="#FFBC41"/>
<path d="M88.725 38.1266C89.0466 38.26 89.4079 38.2603 89.7296 38.1273C90.0513 37.9943 90.307 37.7389 90.4405 37.4174C90.5739 37.0959 90.5742 36.7345 90.4412 36.4128C90.3082 36.0911 90.0528 35.8354 89.7313 35.702C80.3876 31.8242 73.5965 34.7281 69.545 37.8475C66.8572 39.9378 64.6324 42.5631 63.0114 45.5575C62.9347 45.7119 62.8892 45.8799 62.8775 46.0518C62.8658 46.2238 62.888 46.3964 62.943 46.5597C62.9979 46.7231 63.0845 46.8741 63.1978 47.004C63.3111 47.1339 63.4489 47.2402 63.6032 47.3168C63.7576 47.3935 63.9256 47.439 64.0975 47.4507C64.2695 47.4625 64.4421 47.4402 64.6055 47.3853C64.7688 47.3303 64.9198 47.2437 65.0497 47.1304C65.1796 47.0171 65.2859 46.8794 65.3625 46.725C66.8089 44.0899 68.7768 41.777 71.1463 39.9273C76.2405 36.0062 82.1549 35.3999 88.725 38.1266Z" fill="#FFBC41"/>
<path d="M73.9765 28.4034C73.8694 28.7346 73.8982 29.0948 74.0566 29.4047C74.215 29.7146 74.4901 29.9489 74.8213 30.0561C76.6282 30.5885 78.5021 30.8593 80.3858 30.8602C82.5808 30.8602 85.1159 30.464 87.3891 29.1165C90.3641 27.3539 92.2716 24.3506 93.0622 20.1916C93.095 20.0219 93.0941 19.8475 93.0594 19.6783C93.0247 19.509 92.9569 19.3483 92.86 19.2053C92.763 19.0623 92.6388 18.9399 92.4944 18.845C92.35 18.7502 92.1884 18.6847 92.0186 18.6525C91.8489 18.6202 91.6745 18.6218 91.5054 18.6571C91.3363 18.6924 91.1758 18.7608 91.0332 18.8582C90.8905 18.9557 90.7685 19.0804 90.6742 19.2251C90.5798 19.3698 90.515 19.5317 90.4833 19.7016C89.8406 23.0836 88.3531 25.4897 86.0622 26.8525C81.7045 29.4453 75.7225 27.589 75.6278 27.5588C75.2968 27.4521 74.937 27.4811 74.6274 27.6395C74.3178 27.7978 74.0837 28.0726 73.9765 28.4034Z" fill="#FFBC41"/>
<path d="M56.6272 62.316C57.0947 62.316 57.5517 62.1775 57.9405 61.9177C58.3292 61.658 58.6322 61.2889 58.8112 60.8569C58.9901 60.425 59.037 59.9497 58.9458 59.4912C58.8546 59.0326 58.6295 58.6114 58.2989 58.2808C57.9683 57.9502 57.5471 57.725 57.0886 57.6338C56.6301 57.5426 56.1548 57.5894 55.7228 57.7683C55.2909 57.9472 54.9217 58.2502 54.6619 58.6389C54.4022 59.0276 54.2635 59.4847 54.2635 59.9522C54.2643 60.5788 54.5136 61.1796 54.9567 61.6228C55.3997 62.0659 56.0005 62.3152 56.6272 62.316ZM56.6272 59.691C56.6789 59.691 56.7294 59.7063 56.7725 59.735C56.8155 59.7637 56.849 59.8045 56.8688 59.8523C56.8886 59.9 56.8938 59.9526 56.8838 60.0034C56.8737 60.0541 56.8488 60.1007 56.8122 60.1373C56.7756 60.1738 56.729 60.1987 56.6783 60.2088C56.6276 60.2189 56.575 60.2137 56.5272 60.1939C56.4795 60.1741 56.4386 60.1405 56.4099 60.0975C56.3812 60.0545 56.3659 60.0039 56.366 59.9522C56.3663 59.883 56.3939 59.8168 56.4428 59.7679C56.4917 59.719 56.558 59.6913 56.6272 59.691Z" fill="#FFBC41"/>
<path d="M75.2253 19.441C75.6928 19.441 76.1498 19.3024 76.5385 19.0426C76.9273 18.7829 77.2302 18.4137 77.4091 17.9818C77.5881 17.5499 77.6349 17.0746 77.5437 16.616C77.4524 16.1575 77.2273 15.7363 76.8967 15.4057C76.5661 15.0751 76.145 14.85 75.6864 14.7588C75.2279 14.6676 74.7526 14.7144 74.3207 14.8933C73.8887 15.0722 73.5196 15.3752 73.2598 15.7639C73.0001 16.1527 72.8615 16.6097 72.8615 17.0772C72.8621 17.7039 73.1114 18.3047 73.5546 18.7479C73.9977 19.191 74.5986 19.4403 75.2253 19.441ZM75.2253 16.816C75.277 16.816 75.3275 16.8313 75.3705 16.8601C75.4135 16.8888 75.447 16.9296 75.4668 16.9774C75.4866 17.0252 75.4917 17.0778 75.4816 17.1285C75.4715 17.1792 75.4466 17.2258 75.41 17.2623C75.3734 17.2989 75.3268 17.3238 75.2761 17.3338C75.2254 17.3439 75.1728 17.3387 75.1251 17.3189C75.0773 17.299 75.0365 17.2655 75.0078 17.2225C74.9791 17.1795 74.9638 17.1289 74.9639 17.0772C74.9642 17.008 74.9919 16.9417 75.0408 16.8928C75.0898 16.8439 75.1561 16.8163 75.2253 16.816Z" fill="#FFBC41"/>
<path d="M108.542 17.6384C108.075 17.6384 107.618 17.7771 107.229 18.0368C106.84 18.2966 106.537 18.6658 106.359 19.0977C106.18 19.5296 106.133 20.0049 106.224 20.4635C106.315 20.922 106.54 21.3432 106.871 21.6738C107.202 22.0044 107.623 22.2295 108.081 22.3207C108.54 22.4118 109.015 22.365 109.447 22.1861C109.879 22.0071 110.248 21.7041 110.508 21.3153C110.768 20.9266 110.906 20.4695 110.906 20.002C110.906 19.3753 110.656 18.7745 110.213 18.3314C109.77 17.8883 109.169 17.6391 108.542 17.6384ZM108.542 20.2634C108.491 20.2634 108.44 20.2481 108.397 20.2194C108.354 20.1906 108.321 20.1498 108.301 20.1021C108.281 20.0543 108.276 20.0017 108.286 19.951C108.296 19.9003 108.321 19.8537 108.358 19.8172C108.394 19.7806 108.441 19.7557 108.491 19.7456C108.542 19.7356 108.595 19.7407 108.643 19.7605C108.69 19.7803 108.731 19.8138 108.76 19.8568C108.789 19.8998 108.804 19.9503 108.804 20.002C108.804 20.0713 108.776 20.1376 108.727 20.1865C108.678 20.2355 108.612 20.2631 108.542 20.2634Z" fill="#FFBC41"/>
<path d="M55.6596 49.0059C55.6596 48.5383 55.521 48.0813 55.2612 47.6925C55.0014 47.3037 54.6321 47.0008 54.2001 46.8219C53.7681 46.643 53.2927 46.5963 52.8342 46.6876C52.3756 46.7789 51.9544 47.0042 51.6239 47.3349C51.2934 47.6656 51.0683 48.0869 50.9773 48.5455C50.8862 49.0042 50.9332 49.4795 51.1123 49.9114C51.2914 50.3433 51.5946 50.7124 51.9835 50.972C52.3724 51.2316 52.8296 51.37 53.2971 51.3697C53.9236 51.3687 54.5242 51.1193 54.967 50.6762C55.4099 50.2331 55.659 49.6324 55.6596 49.0059ZM53.2971 49.2684C53.2455 49.2684 53.1949 49.2532 53.152 49.2245C53.109 49.1959 53.0754 49.1551 53.0556 49.1074C53.0357 49.0597 53.0305 49.0072 53.0404 48.9565C53.0504 48.9058 53.0752 48.8592 53.1116 48.8226C53.148 48.786 53.1945 48.761 53.2452 48.7508C53.2958 48.7405 53.3483 48.7455 53.3961 48.7652C53.4439 48.7848 53.4849 48.8181 53.5137 48.861C53.5426 48.9038 53.5581 48.9542 53.5583 49.0059C53.558 49.0753 53.5303 49.1417 53.4811 49.1907C53.432 49.2397 53.3654 49.2673 53.296 49.2673L53.2971 49.2684Z" fill="#FFBC41"/>
<path d="M104.65 50.4902C104.182 50.4902 103.725 50.6289 103.337 50.8886C102.948 51.1483 102.645 51.5175 102.466 51.9495C102.287 52.3814 102.24 52.8567 102.332 53.3152C102.423 53.7737 102.648 54.1949 102.979 54.5255C103.309 54.8561 103.73 55.0812 104.189 55.1724C104.647 55.2637 105.123 55.2168 105.555 55.0379C105.987 54.859 106.356 54.556 106.615 54.1673C106.875 53.7786 107.014 53.3216 107.014 52.854C107.013 52.2273 106.764 51.6265 106.321 51.1833C105.878 50.7402 105.277 50.4909 104.65 50.4902ZM104.65 53.1152C104.598 53.1152 104.548 53.0998 104.505 53.0711C104.462 53.0424 104.429 53.0016 104.409 52.9539C104.389 52.9061 104.384 52.8536 104.394 52.803C104.404 52.7523 104.429 52.7058 104.466 52.6693C104.502 52.6328 104.549 52.6079 104.599 52.5979C104.65 52.5878 104.703 52.593 104.75 52.6128C104.798 52.6325 104.839 52.666 104.867 52.709C104.896 52.7519 104.911 52.8024 104.911 52.854C104.911 52.9233 104.883 52.9895 104.834 53.0384C104.786 53.0873 104.719 53.1149 104.65 53.1152Z" fill="#FFBC41"/>
</svg>
