<svg width="80" height="80" viewBox="0 0 80 80" fill="none" xmlns="http://www.w3.org/2000/svg">
<rect x="0.5" y="0.5" width="79" height="79" rx="15.5" stroke="#F4F4F4"/>
<g opacity="0.64" clip-path="url(#clip0_66_162)">
<path d="M38.2459 38.377H37.5095C36.9035 38.377 36.4104 38.8701 36.4104 39.4761V52.3025C36.4104 52.9085 36.9034 53.4016 37.5095 53.4016H38.2459C38.8519 53.4016 39.345 52.9085 39.345 52.3025V39.4761C39.345 38.8701 38.8519 38.377 38.2459 38.377ZM38.4071 52.3025C38.4071 52.3914 38.3348 52.4637 38.2459 52.4637H37.5095C37.4207 52.4637 37.3483 52.3914 37.3483 52.3025V39.4761C37.3483 39.3872 37.4206 39.3149 37.5095 39.3149H38.2459C38.3347 39.3149 38.4071 39.3872 38.4071 39.4761V52.3025Z" fill="#353536"/>
<path d="M34.2874 41.5431C34.0284 41.5431 33.8184 41.753 33.8184 42.012V52.3025C33.8184 52.3913 33.7462 52.4636 33.6572 52.4636H32.9209C32.832 52.4636 32.7597 52.3913 32.7597 52.3025V41.8957C32.7597 41.6367 32.5497 41.4268 32.2907 41.4268C32.0317 41.4268 31.8218 41.6367 31.8218 41.8957V52.3025C31.8218 52.9085 32.3148 53.4016 32.9209 53.4016H33.6572C34.2633 53.4016 34.7564 52.9085 34.7564 52.3025V42.012C34.7564 41.753 34.5464 41.5431 34.2874 41.5431Z" fill="#353536"/>
<path d="M42.8972 38.377H42.1608C41.5548 38.377 41.0618 38.87 41.0618 39.476V43.4871C41.0618 43.7462 41.2717 43.9561 41.5307 43.9561C41.7898 43.9561 41.9997 43.7462 41.9997 43.4871V39.476C41.9997 39.3872 42.072 39.3149 42.1608 39.3149H42.8972C42.9861 39.3149 43.0584 39.3872 43.0584 39.476V52.3025C43.0584 52.3914 42.9861 52.4636 42.8972 52.4636H42.1608C42.072 52.4636 41.9997 52.3914 41.9997 52.3025V45.4856C41.9997 45.2266 41.7898 45.0167 41.5307 45.0167C41.2717 45.0167 41.0618 45.2266 41.0618 45.4856V52.3025C41.0618 52.9085 41.5548 53.4016 42.1608 53.4016H42.8972C43.5032 53.4016 43.9963 52.9085 43.9963 52.3025V39.476C43.9963 38.87 43.5032 38.377 42.8972 38.377Z" fill="#353536"/>
<path d="M49.1195 34.6502H46.3811V33.6172C47.1088 33.2147 47.6029 32.4393 47.6029 31.5505C47.6029 30.92 47.3573 30.3272 46.9116 29.8814C46.4657 29.4356 45.873 29.1901 45.2426 29.1901H44.5484V28.9221C44.5484 27.6206 43.4895 26.5617 42.188 26.5617H40.7666C40.6102 25.1233 39.3884 24 37.9091 24C36.4299 24 35.208 25.1233 35.0517 26.5617H33.6302C32.3288 26.5617 31.2699 27.6206 31.2699 28.9221V29.1901H30.5757C29.2743 29.1901 28.2153 30.249 28.2153 31.5505C28.2153 32.4136 28.6813 33.1696 29.3747 33.5813V52.9116C29.3747 54.6145 30.7601 56 32.463 56H43.2927C44.9956 56 46.3811 54.6146 46.3811 52.9116V49.9232H49.1196C50.5892 49.9232 51.7849 48.7276 51.7849 47.2579V37.3155C51.7848 35.8459 50.5892 34.6502 49.1195 34.6502ZM30.5757 30.1281H31.7389C31.9979 30.1281 32.2078 29.9181 32.2078 29.6591V28.9221C32.2078 28.1378 32.8459 27.4997 33.6302 27.4997H35.3474C35.6922 27.4997 35.9728 27.2192 35.9728 26.8743C35.9728 25.8066 36.8414 24.9379 37.9091 24.9379C38.9769 24.9379 39.8455 25.8066 39.8455 26.8743C39.8455 27.2192 40.1261 27.4997 40.4709 27.4997H42.1881C42.9724 27.4997 43.6105 28.1378 43.6105 28.9221V29.6591C43.6105 29.9181 43.8204 30.1281 44.0795 30.1281H45.2426C45.6225 30.1281 45.9798 30.2759 46.2484 30.5446C46.5171 30.8133 46.665 31.1705 46.665 31.5505C46.665 32.3347 46.0269 32.9729 45.2426 32.9729H37.6335C36.7402 32.9729 35.9003 33.3207 35.2687 33.9524C34.637 34.5841 34.2891 35.4239 34.2891 36.3172V38.9508C34.2891 39.4061 33.9187 39.7765 33.4634 39.7765C33.008 39.7765 32.6376 39.4061 32.6376 38.9508V34.0034C32.6376 33.4351 32.1753 32.9729 31.607 32.9729H30.5757C29.7914 32.9729 29.1533 32.3347 29.1533 31.5505C29.1533 30.7662 29.7914 30.1281 30.5757 30.1281ZM30.5757 33.9108H31.607C31.6581 33.9108 31.6997 33.9524 31.6997 34.0034V35.438H30.3126V33.8958C30.399 33.9054 30.4867 33.9108 30.5757 33.9108ZM43.2927 55.0621H32.463C31.2773 55.0621 30.3126 54.0974 30.3126 52.9116V36.376H31.6997V38.9508C31.6997 39.9233 32.4908 40.7145 33.4634 40.7145C34.4359 40.7145 35.227 39.9233 35.227 38.9508V36.376H41.5297C41.7888 36.376 41.9987 36.1661 41.9987 35.9071C41.9987 35.648 41.7888 35.4381 41.5297 35.4381H35.3927C35.512 35.1335 35.6936 34.8539 35.9319 34.6157C36.3864 34.1611 36.9907 33.9108 37.6334 33.9108H45.2426C45.3101 33.9108 45.3769 33.9073 45.4431 33.9017V35.4382H43.5283C43.2692 35.4382 43.0593 35.6481 43.0593 35.9071C43.0593 36.1662 43.2692 36.3761 43.5283 36.3761H45.4431V52.9117C45.4431 54.0974 44.4785 55.0621 43.2927 55.0621ZM50.8469 47.2579C50.8469 48.2104 50.0719 48.9853 49.1195 48.9853H46.3811V47.9223H49.1195C49.4858 47.9223 49.7839 47.6242 49.7839 47.2579V41.523C49.7839 41.264 49.574 41.054 49.3149 41.054C49.0559 41.054 48.8459 41.264 48.8459 41.523V46.9844H46.3811V37.5891H48.8459V39.5245C48.8459 39.7835 49.0559 39.9934 49.3149 39.9934C49.574 39.9934 49.7839 39.7835 49.7839 39.5245V37.3155C49.7839 36.9492 49.4858 36.6512 49.1195 36.6512H46.3811V35.5882H49.1195C50.0719 35.5882 50.8469 36.3631 50.8469 37.3155V47.2579Z" fill="#353536"/>
</g>
<defs>
<clipPath id="clip0_66_162">
<rect width="32" height="32" fill="white" transform="translate(24 24)"/>
</clipPath>
</defs>
</svg>
