<svg width="80" height="80" viewBox="0 0 80 80" fill="none" xmlns="http://www.w3.org/2000/svg">
<rect x="0.5" y="0.5" width="79" height="79" rx="15.5" stroke="#F4F4F4"/>
<g opacity="0.64">
<path d="M32.5335 37.8669H31.4668V38.9336H32.5335V37.8669Z" fill="#353536"/>
<path d="M35.2 36.8003H34.1333V37.8669H35.2V36.8003Z" fill="#353536"/>
<path d="M38.3999 37.8669H37.3333V38.9336H38.3999V37.8669Z" fill="#353536"/>
<path d="M41.6001 36.8003H40.5334V37.8669H41.6001V36.8003Z" fill="#353536"/>
<path d="M45.3333 36.8003H44.2666V37.8669H45.3333V36.8003Z" fill="#353536"/>
<path d="M48 37.8669H46.9333V38.9336H48V37.8669Z" fill="#353536"/>
<path d="M41.6001 27.2002H40.5334V28.2669H41.6001V27.2002Z" fill="#353536"/>
<path d="M37.3333 31.4668H36.2666V32.5334H37.3333V31.4668Z" fill="#353536"/>
<path d="M40 32.5337H38.9333V33.6003H40V32.5337Z" fill="#353536"/>
<path d="M44.8001 31.4668H43.7334V32.5334H44.8001V31.4668Z" fill="#353536"/>
<path d="M50.9008 40.0119C52.0887 38.7078 51.9945 36.6876 50.6904 35.4997C50.1006 34.9624 49.3311 34.6653 48.5333 34.6669H47.1787C48.3598 33.3562 48.2548 31.3362 46.9441 30.155C46.3559 29.625 45.5918 29.3322 44.8 29.3336H44.7632C44.4928 27.2025 42.6816 25.6039 40.5334 25.6003H39.8022C39.4031 25.6129 39.0485 25.347 38.9489 24.9603C38.9278 24.8547 38.9278 24.7459 38.9489 24.6403C38.9764 24.4815 38.9314 24.3187 38.8262 24.1966C38.7195 24.0722 38.5639 24.0005 38.4001 24.0003C37.0303 23.9812 35.8052 24.8494 35.3692 26.148C35.0329 27.1396 35.1975 28.2327 35.8108 29.0813C35.8757 29.1693 35.9451 29.2539 36.0188 29.3347H35.2001C33.4358 29.3317 32.003 30.7594 32 32.5238C31.9987 33.3156 32.2914 34.0797 32.8215 34.6679H31.4668C29.7028 34.6645 28.27 36.0918 28.2666 37.8559C28.2651 38.6537 28.5621 39.4231 29.0994 40.0129C27.4291 40.1355 26.1357 41.5253 26.1335 43.2001C26.1333 44.2506 26.6549 45.2326 27.5255 45.8203L30.9634 55.6426C31.0382 55.8566 31.2401 56 31.4668 56H48.5333C48.76 56 48.962 55.8566 49.0368 55.6426L52.4746 45.8203C53.3452 45.2326 53.8669 44.2506 53.8666 43.2001C53.865 41.5249 52.5715 40.1344 50.9008 40.0119ZM36.3841 26.4803C36.6204 25.7992 37.1925 25.2891 37.8961 25.132C37.8961 25.1427 37.8998 25.1534 37.9014 25.164C38.096 26.0539 38.8914 26.6829 39.8022 26.6669H40.5334C42.0942 26.6689 43.4268 27.7949 43.6891 29.3336H38.4001C37.7171 29.3322 37.0757 29.0054 36.6732 28.4536C36.2638 27.8811 36.1561 27.1461 36.3841 26.4803ZM35.2001 30.4002H44.8C45.9782 30.4002 46.9333 31.3554 46.9333 32.5336C46.9333 33.7117 45.9782 34.6669 44.8 34.6669H35.2001C34.0219 34.6669 33.0668 33.7117 33.0668 32.5336C33.0668 31.3554 34.0219 30.4002 35.2001 30.4002ZM31.4668 35.7335H48.5333C49.7115 35.7335 50.6666 36.6886 50.6666 37.8668C50.6666 39.045 49.7115 40.0001 48.5333 40.0001H31.4668C30.2886 40.0001 29.3335 39.045 29.3335 37.8668C29.3335 36.6886 30.2886 35.7335 31.4668 35.7335ZM31.8455 54.9333L28.3394 44.9158C28.6411 44.6204 29.0381 44.4419 29.4594 44.4124C29.9742 44.3785 30.4789 44.5666 30.846 44.9292L30.9698 45.0529L32.4476 54.9333H31.8455ZM33.5265 54.9333L32.0332 44.9868L32.3409 44.679C33.0364 43.9856 34.1617 43.9856 34.8572 44.679L35.2108 45.0316L35.7057 54.9333H33.5265ZM39.4667 54.9333H36.7745L36.278 45.0097L36.6086 44.679C37.3041 43.9856 38.4294 43.9856 39.1249 44.679L39.4667 45.0209V54.9333ZM43.2256 54.9333H40.5334V45.0209L40.8753 44.679C41.5707 43.9856 42.696 43.9856 43.3915 44.679L43.7222 45.0097L43.2256 54.9333ZM44.2944 54.9333L44.7894 45.0316L45.1419 44.679C45.8373 43.9856 46.9627 43.9856 47.6581 44.679L47.9659 44.9868L46.4736 54.9333H44.2944ZM48.1546 54.9333H47.5525L49.0346 45.0529L49.1584 44.9292C49.8477 44.2392 50.9642 44.2332 51.6607 44.9158L48.1546 54.9333ZM52.513 44.263L52.5066 44.2572C52.3963 44.1393 52.2762 44.031 52.1477 43.9334C52.1274 43.918 52.1077 43.902 52.0874 43.887C51.9617 43.7962 51.8289 43.7157 51.6901 43.6465C51.665 43.6337 51.6399 43.622 51.6138 43.6097C51.4722 43.5443 51.3253 43.4908 51.1749 43.4497C51.1536 43.4433 51.1317 43.4396 51.1098 43.4342C50.9486 43.3924 50.7841 43.3647 50.6181 43.3516C50.5504 43.3468 50.4832 43.3446 50.416 43.3446C50.3488 43.3446 50.2874 43.3574 50.2229 43.3617C50.1386 43.3676 50.0549 43.3718 49.9717 43.3846C49.8784 43.3996 49.7882 43.4241 49.697 43.4481C49.6154 43.4694 49.5338 43.487 49.4544 43.5153C49.3547 43.554 49.2573 43.5983 49.1626 43.6481C49.0997 43.679 49.0346 43.7014 48.9744 43.7388C48.8192 43.8294 48.6729 43.9346 48.5376 44.0529L48.4122 43.9276C47.3001 42.8183 45.4999 42.8183 44.3878 43.9276L44.2667 44.046L44.1456 43.9249C43.0334 42.8156 41.2333 42.8156 40.1211 43.9249L40.0001 44.046L39.879 43.9249C38.7668 42.8156 36.9667 42.8156 35.8545 43.9249L35.7334 44.046L35.6124 43.9249C34.5002 42.8156 32.7001 42.8156 31.5879 43.9249L31.4626 44.0502C30.7626 43.4268 29.7972 43.1946 28.8903 43.4316C28.8684 43.4369 28.8466 43.4406 28.8253 43.447C28.6748 43.4881 28.5279 43.5416 28.3863 43.607C28.3602 43.6193 28.333 43.631 28.3101 43.6438C28.1713 43.713 28.0384 43.7935 27.9127 43.8844C27.8925 43.8993 27.8727 43.9153 27.8525 43.9308C27.7239 44.0284 27.6039 44.1366 27.4935 44.2545L27.4871 44.2604C27.2988 43.9388 27.1997 43.5728 27.2002 43.2001C27.2002 42.0219 28.1553 41.0668 29.3335 41.0668H50.6666C51.8448 41.0668 52.7999 42.0219 52.7999 43.2001C52.8009 43.5736 52.7018 43.9406 52.513 44.263Z" fill="#353536"/>
</g>
</svg>
